<svg xmlns="http://www.w3.org/2000/svg" viewBox="0 0 3000 3000" xmlns:xlink="http://www.w3.org/1999/xlink"><g id="item_j"></g><g id="item_i"></g><mask id="hooktail_mask"><g fill="white"><path d="M0 0h3000v3000H0z"></path><path d="M0 0h3000v3000H0z"></path></g><g fill="black"><path d="M2399.9,1601.2a38.3,38.3,0,0,1,19.5,3.8l14.1,8.6c-25.9,53.4-14.1,96.3.5,123a151.2,151.2,0,0,0,38.5,45.7c10,8.6,28.1,16.7,51.7,16.7a111.4,111.4,0,0,0,13.8-.9,121.9,121.9,0,0,0,24.1-5.7h31.8v155.1H2251.8V1636.6h86.1Z"></path></g></mask><g clip-path="url(#kittyClipPath)" mask=""><g id="tailFur"><clipPath id="tailFurClipPath"><path fill="none" d="M2518.1 1775.9c67.6-29 132.5 39.9 146.6 73.7 48 115.1-49.4 194.9-49.4 194.9-36.6 34.8-88.5 67.7-157.3 88.8-175.3 53.8-339.2-38.4-422.2-99l-34.7-24.9-36.1 140.1 220.6 76.5a852.5 852.5 0 0 0 229 11.7c98.1-8.4 186.9-29.1 266-104.6 93.6-89.2 148.9-239.5 82.8-373.6-44.5-90.3-152-191.5-273.6-171.9-89 14.4-190.9 94.4-182.7 186.5 5.8 64 64.6 132.1 133.1 133.9 48.3 1.2 112.1-30.2 112.1-73.4-.1-34.5-40.8-73.1-100.9-79.4"></path></clipPath><g clip-path="url(#tailFurClipPath)"><path fill="#f7bc56" d="M1904 1437.5h939v808.41h-939z"></path><path d="M2348.5 1853.5l34.8-28.9a24.5 24.5 0 0 1 32.9 1.5l38.3 38a24.5 24.5 0 0 1 7.2 17.9l-.5 26.5a24.5 24.5 0 0 1-35.2 21.5l-72.5-35.5a24.5 24.5 0 0 1-5-41zm-31.1-13.6c16.7-9.4 38.3-22.1 52.1-30.2a23.6 23.6 0 0 0 11.3-23.9l-8.6-56.1a23.6 23.6 0 0 0-4.9-11.1l-28.6-35.9a23.6 23.6 0 0 0-36.9.1l-41.3 52.2a23.6 23.6 0 0 0-3.5 23.1l26.8 69.8a23.6 23.6 0 0 0 33.6 12zm131.5-55l-15.3 10.8a14.2 14.2 0 0 0-.7 22.7l31.4 25.3a14.2 14.2 0 0 0 11.3 2.9l73.9-12.4a14.2 14.2 0 0 0 9.4-22l-19-28a14.2 14.2 0 0 0-12.6-6.2l-70.9 4.3a14.2 14.2 0 0 0-7.5 2.6zm130.3 81.6l-99-5-1 73 50-5 50-63zM2354 1671.2l22.1 20.1a28.4 28.4 0 0 0 21.3 7.3l57.6-4.4a28.4 28.4 0 0 0 16.3-6.7l47.8-40.7a28.4 28.4 0 0 0 8.6-13l9.3-29.1c7.3-22.9-15.3-43.9-37.6-35.1l-136.7 54.1a28.4 28.4 0 0 0-8.7 47.5zm206 115.6l-39.5-57.9a25.3 25.3 0 0 1 2.2-31.3l17.1-18.9a25.3 25.3 0 0 1 20.9-8.2l59.5 5a25.3 25.3 0 0 1 14.1 5.8l32.1 26.9a25.3 25.3 0 0 1 6.1 31.3l-29.8 55.9a25.3 25.3 0 0 1-29.2 12.5l-39.5-11a25.3 25.3 0 0 1-14-10.1zm-.3-192.9l-2.5 34.4a16.4 16.4 0 0 0 12.8 17.2l41.1 9a16.4 16.4 0 0 0 15.4-4.7l25.6-27.1a16.4 16.4 0 0 0-7.9-27.1l-64.1-16.3a16.4 16.4 0 0 0-20.4 14.6zm-110.2 122.4l7.5 7.7a9.6 9.6 0 0 1-5.5 16.2l-46 6.8a9.6 9.6 0 0 1-11-8.9l-.7-11.2a9.6 9.6 0 0 1 8.8-10.2l39.3-3.2a9.6 9.6 0 0 1 7.6 2.8zm283.9-8.2c-8.4 14.2-18.4 30.6-25 41.5a33.4 33.4 0 0 0-3.9 25.4l15.4 61.5a33.4 33.4 0 0 0 8.8 15.5l23.4 23.4c21.2 21.2 57.4 5.9 57-24.1l-1.6-120.1a33.4 33.4 0 0 0-17.6-29l-12-6.4a33.4 33.4 0 0 0-44.5 12.3zm-70.1-62l-5.5 7.9a17.8 17.8 0 0 0 2.3 23l24 22.9a17.8 17.8 0 0 0 23.2 1.2l10.1-7.8a17.8 17.8 0 0 0 .2-27.9l-28.6-23a17.8 17.8 0 0 0-25.7 3.7zm-3 226.7l24.6-4.7a28.7 28.7 0 0 1 25 7.3l42 39.4a28.7 28.7 0 0 1 8.2 28l-11.9 46.3a28.7 28.7 0 0 1-12.9 17.4l-49.9 30.4a28.7 28.7 0 0 1-19.7 3.8l-25.5-4.3a28.7 28.7 0 0 1-23.4-33.7l20.7-107.1a28.7 28.7 0 0 1 22.8-22.8zm82.5 170.8l-40.6 14.3a17.5 17.5 0 0 0-11.5 14.1l-4.7 34.4a17.5 17.5 0 0 0 11.1 18.7l21.3 8.2a17.5 17.5 0 0 0 22.4-9.5l24-56.9a17.5 17.5 0 0 0-22-23.3zm-140.1 4.2l46.1 11.2a10.4 10.4 0 0 1 7.6 12.8l-.5 1.9a10.4 10.4 0 0 1-8.8 7.7l-30.9 3.8a10.4 10.4 0 0 1-5.9-1l-21.1-10.6a10.4 10.4 0 0 1-2.6-16.8l6.4-6.2a10.4 10.4 0 0 1 9.7-2.8zm55.4 41.2l-13.3 4.2a9.5 9.5 0 0 0-5.6 13.3l4.4 8.7a9.5 9.5 0 0 0 11.3 4.8l9.9-3.1a9.5 9.5 0 0 0 6.6-10l-1-9.7a9.5 9.5 0 0 0-12.3-8.2z" fill="#c47e33"></path><defs><linearGradient id="tailShadowGradient" x1="2364.15" y1="2291.47" x2="2364.15" y2="2013.47" gradientUnits="userSpaceOnUse"><stop offset="0" stop-color="gray"></stop><stop offset=".27" stop-color="#7d7d7d"></stop><stop offset=".46" stop-color="#747474"></stop><stop offset=".64" stop-color="#646464"></stop><stop offset=".8" stop-color="#4d4d4d"></stop><stop offset=".95" stop-color="#303030"></stop><stop offset="1" stop-color="#242424"></stop></linearGradient><linearGradient id="tailShadowGradient2" x1="2579.15" y1="1935.2" x2="2579.15" y2="1441.6" gradientUnits="userSpaceOnUse"><stop offset="0" stop-color="#fff" stop-opacity="0"></stop><stop offset=".72" stop-color="#fff"></stop></linearGradient><linearGradient id="tailShadowGradient3" x1="2583.8" y1="2124.84" x2="2583.8" y2="1726.66" href="#tailShadowGradient" xlink:href="#tailShadowGradient"></linearGradient></defs><g clip-path="url(#tailShadowClipPath)" style="mix-blend-mode:overlay"><path d="M2307.1 1774.1s77.1-188.9 277.1-114.6 203.7 275.7 203.7 275.7l134.3-263.7-234-212.5-344-17.4-108 123.9z" opacity=".35" fill="url(#tailShadowGradient2)" style="mix-blend-mode:overlay"></path></g><g clip-path="url(#tailShadowClipPath)" style="mix-blend-mode:multiply"><path d="M2135.9 2084.1c107 52 71.6 104 199.2 113.8 208.3 32.6 329.5-41.9 390.8-121l100.2-44.4-96 259-828-9.1 54-268.9s122.5 42.7 179.8 70.6z" opacity=".25" fill="url(#tailShadowGradient)" style="mix-blend-mode:multiply"></path><path d="M2519.6 1734.3c8.4-2.3 109.1-43.4 164.5 92.2 57.5 140.6-26.3 224.4-201.1 298.4l96.1-317.4s-20.1-11.2-61-31.6-52.7-18.9-52.7-18.9 20.5-10.4 54.2-22.7z" opacity=".25" fill="url(#tailShadowGradient3)" style="mix-blend-mode:multiply"></path></g></g></g><g id="tail"><path d="M2515.9 1770l5.8-2.2 1.6-.5 1.6-.5 3.3-1 3.3-.8 3.2-.7 3.3-.6 3.3-.5a92.5 92.5 0 0 1 26.4.8 110 110 0 0 1 25 7.6 138.2 138.2 0 0 1 22.6 12.5 169 169 0 0 1 20 16 181.2 181.2 0 0 1 17.5 18.7 139.6 139.6 0 0 1 14.5 21.4l1.5 3 1.4 3.1.3.8v.9l.6 1.4 1.1 2.9 2.2 5.8 2 6.2 1 3.1c.3 1 .7 2.1.9 3.1l1.5 6.2.8 3.1.6 3.2 1.1 6.3c.4 2.1.5 4.2.8 6.4l.4 3.2.2 1.6v1.6l.3 6.4v6.4a154.3 154.3 0 0 1-2.3 25.6l-1.2 6.3c-.5 2.1-1 4.2-1.5 6.2s-.5 2.1-.8 3.1l-.9 3.1-.9 3.1-.5 1.5-.5 1.5-2.1 6-2.4 5.9c-.8 2-1.7 3.9-2.6 5.8l-1.3 2.9-1.4 2.9a193.8 193.8 0 0 1-12.9 22 213.5 213.5 0 0 1-15.5 20.2c-2.8 3.2-5.6 6.3-8.6 9.4l-4.6 4.5-2.4 2.2-2.6 2.2.3-.3a366.6 366.6 0 0 1-68.8 51 404.9 404.9 0 0 1-38.1 19.4q-19.5 8.7-39.8 15.6l-10.2 3.3-2.5.8h-.8l-.6.2-1.3.4-5.1 1.4-10.2 2.8-10.5 2.5-5.3 1.2-5.3 1-10.5 2-10.6 1.5-5.3.7-5.3.6-10.7 1-10.7.6c-7.1.5-14.3.4-21.4.5l-10.7-.3-5.4-.2-5.3-.3-10.7-.7-10.6-1.1-5.3-.6-5.3-.7-10.6-1.5c-7-1.3-14.1-2.4-21-4-14-2.8-27.7-6.5-41.4-10.6l-10.2-3.2-10.1-3.4c-3.4-1.1-6.7-2.4-10-3.6s-6.7-2.4-10-3.8l-9.9-4-9.8-4.2-9.7-4.4-9.7-4.5c-12.8-6.1-25.4-12.7-37.8-19.6s-24.5-14.3-36.5-21.9-23.6-15.7-35-24l-34.2-24.6 9.7-3.5-35.8 140.3-4-7.5 220.6 76.5-.9-.2a866.3 866.3 0 0 0 126.3 14q31.8 1.1 63.6-.1c21.2-.8 42.3-2.5 63.4-4.9a628.3 628.3 0 0 0 62.5-10 412.3 412.3 0 0 0 60.4-18 344.9 344.9 0 0 0 56.3-27.9 331.7 331.7 0 0 0 50.1-37.9l5.8-5.3.7-.7.4-.3.3-.3 1.4-1.4 2.8-2.8c3.9-3.7 7.4-7.5 11-11.3l1.3-1.4 1.3-1.5 2.6-2.9c1.7-2 3.5-3.9 5.2-5.9 3.3-4.1 6.8-8 9.9-12.2l4.8-6.2 4.6-6.4 2.3-3.2 2.2-3.3 4.4-6.5c5.6-8.9 11.1-17.8 16-27.1 2.5-4.6 4.8-9.3 7.1-14 1.2-2.3 2.2-4.8 3.3-7.1s2.2-4.8 3.2-7.2l3-7.3 1.5-3.6 1.4-3.7 2.7-7.4 2.4-7.5c1.7-5 3-10 4.5-15.1.4-1.3.7-2.5 1-3.8l.9-3.8c.6-2.5 1.3-5.1 1.8-7.6l1.6-7.7c.2-1.3.6-2.6.7-3.9l.6-3.9 1.2-7.7.9-7.8a282.3 282.3 0 0 0 .3-62.5l-.4-3.9c-.1-1.3-.4-2.6-.5-3.9l-1.1-7.7-.3-1.9-.4-1.9-.8-3.8c-.5-2.6-.9-5.1-1.5-7.7l-1.9-7.6-.9-3.8-1.1-3.8-2.2-7.5c-.3-1.3-.8-2.5-1.2-3.7l-1.3-3.7c-13.7-39.4-36.7-75.5-64.5-106.9-7-7.8-14.4-15.3-22-22.5s-15.7-13.9-23.9-20.4-16.9-12.3-25.8-17.8l-6.7-4-3.4-2-3.5-1.8c-2.3-1.2-4.6-2.5-6.9-3.6l-7-3.4-3.6-1.6-3.6-1.5-3.6-1.5-3.6-1.4-7.3-2.7-7.4-2.4c-2.5-.8-5-1.4-7.5-2.1s-5-1.4-7.5-1.9l-7.6-1.6-7.7-1.2a183.9 183.9 0 0 0-30.9-1.9h-3.9l-3.9.3-7.7.6-7.7 1-1.9.3h-.8l-1 .2-3.9.7-3.9.7-3.7.9-3.7.8-3.8 1c-2.5.7-5 1.3-7.5 2.1s-5 1.5-7.4 2.4a238.4 238.4 0 0 0-28.8 12 265.3 265.3 0 0 0-27.2 15.4l-6.5 4.3-6.4 4.5-6.2 4.8c-2.1 1.6-4 3.3-6 5a224.5 224.5 0 0 0-22.3 21.7 177.5 177.5 0 0 0-18.6 24.7c-10.9 17.4-18.4 36.9-20.4 57.1-.2 2.5-.6 5-.5 7.6v7.6l.2 3.8v3.7l.5 4c.2 1.3.4 2.5.6 3.7s1 4.9 1.5 7.4.6 2.5.9 3.7.6 2.5 1 3.7 1.5 4.9 2.4 7.3l1.3 3.6 1.5 3.6a154.6 154.6 0 0 0 14.6 27 157 157 0 0 0 19.6 23.7c3.6 3.7 7.4 7 11.4 10.3a147.3 147.3 0 0 0 12.4 9 140.1 140.1 0 0 0 13.2 7.6 124 124 0 0 0 14 5.9 116.7 116.7 0 0 0 14.5 4 105 105 0 0 0 14.9 1.9h11.3l3.8-.3a138.1 138.1 0 0 0 15.1-2.2 144.7 144.7 0 0 0 14.8-3.8 136.8 136.8 0 0 0 14.4-5.3 118.7 118.7 0 0 0 26.2-15.3c7.9-6.1 14.7-13.6 19-22.1a42.5 42.5 0 0 0 4.2-13.3v-7.1a7.8 7.8 0 0 0-.1-.9v-.8c-.1-.6-.1-1.1-.2-1.7s-.3-2.3-.6-3.5a55 55 0 0 0-5.1-13.6 71.7 71.7 0 0 0-8.3-12.4 102 102 0 0 0-22.9-20.1 132.7 132.7 0 0 0-27.8-13.7q-7.4-2.6-15-4.5c-5.1-1.2-10.2-2.2-15.4-3a2.5 2.5 0 0 1 .6-5c21.6 1.5 43.2 7.6 62.3 18.9a106.8 106.8 0 0 1 25.9 21 81.9 81.9 0 0 1 10 13.8 65.5 65.5 0 0 1 6.5 16.1c.4 1.4.6 2.9.9 4.3s.4 3.2.6 4.6v8.8a52.1 52.1 0 0 1-4.9 17.2 68.6 68.6 0 0 1-9.6 14.7 89.8 89.8 0 0 1-12.3 11.9 128.7 128.7 0 0 1-28.7 17.4 154.4 154.4 0 0 1-31.7 10.3 151.2 151.2 0 0 1-16.6 2.5l-4.2.3-4.3.2h-8.4a118.3 118.3 0 0 1-16.8-2.1 124 124 0 0 1-16.3-4.6 137.3 137.3 0 0 1-15.5-6.6 147.7 147.7 0 0 1-14.5-8.4 160.3 160.3 0 0 1-13.4-9.9c-4.2-3.6-8.4-7.3-12.3-11.3a171.7 171.7 0 0 1-21-25.7 167.3 167.3 0 0 1-15.7-29.3l-1.6-3.9-1.4-3.9c-1-2.6-1.7-5.3-2.6-7.9s-.7-2.7-1.1-4-.7-2.7-1-4.1-1.2-5.4-1.6-8.3-.5-2.9-.7-4.2l-.5-4v-4.5l-.2-4.2v-8.4c0-2.8.3-5.6.6-8.4a135 135 0 0 1 7.6-32.6 161.5 161.5 0 0 1 14.7-29.9 190 190 0 0 1 19.9-26.4 236.9 236.9 0 0 1 23.6-22.9c2.1-1.7 4.2-3.5 6.3-5.2l6.5-5 6.7-4.8 6.8-4.6a277.8 277.8 0 0 1 28.5-16.2 250.9 250.9 0 0 1 30.3-12.6c2.6-1 5.2-1.7 7.8-2.5s5.3-1.5 7.9-2.3l4-1.1 4.1-.9 4.1-.9 4-.7 3.9-.7 1-.2h1.2l2-.3 8.2-1.1 8.2-.6 4.1-.3h4.1a196.3 196.3 0 0 1 32.9 2l8.2 1.3 8.1 1.7c2.7.5 5.3 1.3 8 2s5.3 1.3 7.9 2.2l7.8 2.5 7.7 2.8 3.8 1.5 3.8 1.6 3.8 1.6 3.7 1.7 7.4 3.5c2.5 1.2 4.8 2.5 7.3 3.8l3.6 1.9 3.5 2.1 7.1 4.1c9.3 5.7 18.2 12 26.9 18.6s16.9 13.7 24.8 21.2 15.5 15.2 22.7 23.3 14.1 16.5 20.6 25.2 12.6 17.7 18.3 27c2.8 4.7 5.6 9.3 8.2 14.2l2 3.6 1.8 3.6 1.8 3.6.5.9.3.5.2.5.9 1.9 3.4 7.4c.6 1.2 1.2 2.5 1.7 3.7l1.5 3.8 3.1 7.6c1 2.5 1.8 5.1 2.7 7.7l1.4 3.9c.5 1.3.9 2.6 1.3 3.9l2.3 7.8 1.2 3.9 1 4 1.9 8c.6 2.7 1.1 5.4 1.6 8l.8 4 .4 2 .3 2 1.2 8.1c.2 1.4.4 2.7.6 4.1l.4 4.1a294.8 294.8 0 0 1-.3 65.3l-1 8.1-1.3 8.1-.6 4c-.2 1.3-.5 2.7-.8 4l-1.6 8c-.5 2.7-1.3 5.3-1.9 7.9l-1 4c-.3 1.3-.6 2.6-1 3.9-1.5 5.2-2.9 10.5-4.6 15.6l-2.5 7.7-2.8 7.7-1.4 3.8-1.5 3.8-3.1 7.5c-1.1 2.5-2.2 5-3.3 7.4s-2.2 5-3.4 7.4c-2.4 4.9-4.7 9.8-7.4 14.5-5 9.6-10.7 18.9-16.5 28.1l-4.5 6.8-2.3 3.4-2.4 3.3-4.8 6.6-5 6.5c-3.3 4.3-6.8 8.5-10.2 12.7-1.7 2.1-3.6 4.1-5.4 6.1l-2.7 3-1.4 1.5-1.4 1.5c-3.8 4-7.5 8-11.3 11.7l-2.8 2.8-1.4 1.4-.4.4-.4.3-.8.7-6 5.5a344.1 344.1 0 0 1-51.9 39.3 357.4 357.4 0 0 1-58.3 28.9 424.8 424.8 0 0 1-62.2 18.6 640.4 640.4 0 0 1-63.9 10.3c-21.3 2.4-42.8 4.1-64.3 5s-43 .9-64.5.1a878.7 878.7 0 0 1-128.1-14.2h-.5l-.4-.2-220.6-76.5-5.4-1.9 1.4-5.6 36.2-140.2 2.3-8.8 7.4 5.3 34.2 24.6c11.3 8.3 22.8 16.1 34.5 23.7s23.7 14.7 35.8 21.5 24.5 13.3 37 19.3l9.5 4.4 9.5 4.3 9.6 4.1 9.7 3.9c3.2 1.3 6.5 2.5 9.7 3.7s6.5 2.5 9.8 3.5l9.9 3.4 9.9 3.1c13.3 4 26.7 7.6 40.3 10.4 6.8 1.5 13.6 2.6 20.4 3.9l10.3 1.5 5.1.7 5.2.5 10.3 1.1 10.4.7 5.2.3 5.2.2 10.4.3c6.9-.1 13.8 0 20.7-.5l10.4-.6 10.3-1 5.2-.5 5.1-.7 10.3-1.5 10.2-1.9 5.1-.9 5-1.2 10-2.3 10.1-2.8 5.1-1.4 1.3-.4.6-.2h.5l2.5-.8 9.9-3.2q19.7-6.7 38.7-15.2a392.4 392.4 0 0 0 37-18.8 354.1 354.1 0 0 0 65.7-49.9h.1l.2-.2 2.1-1.8 2.2-2 4.2-4.2c2.8-2.8 5.5-5.8 8.1-8.8a201 201 0 0 0 14.5-19 181.3 181.3 0 0 0 12.1-20.6l1.3-2.7 1.2-2.7c.8-1.8 1.7-3.6 2.4-5.5l2.2-5.5 2-5.6.5-1.4.4-1.4.9-2.8.9-2.8c.3-.9.5-1.9.7-2.9s1-3.8 1.4-5.8l1.1-5.8a141.8 141.8 0 0 0 2.1-23.6v-6l-.3-5.9v-1.5l-.2-1.5-.3-2.9c-.2-2-.4-3.9-.7-5.9l-1-5.8-.5-2.9-.7-2.9-1.4-5.8c-.2-1-.5-1.9-.8-2.8l-.9-2.8-1.7-5.6-2.2-5.8-1.1-2.9-.6-1.4v-.7l-.3-.6-1.2-2.6-1.3-2.5a127.3 127.3 0 0 0-13.2-19.4 164.1 164.1 0 0 0-34.8-32.2c-13-8.8-27.6-15.5-42.7-18.1a79.9 79.9 0 0 0-22.8-.7l-2.8.4-2.8.5-2.8.6-2.7.7-2.6.8-1.3.4-1.4.5-5.8 2.2a6.3 6.3 0 0 1-4.8-11.8z" fill="#31323d"></path></g></g><g id="item_h"></g><g clip-path="url(#kittyClipPath)"><g id="bodyFur"><clipPath id="furClipPath"><path d="M2200.5 2195.7c-43-29.4-132.4-61.7-179.8-75.5l-.8-.3a248.1 248.1 0 0 0 6.4-155.9l-134.5-437.7a121.2 121.2 0 0 0 41.2-22.3c-16.2 7.6-39.1-8.1-54.9-21.9l-2.2-7.2c54.7 26.7 104.5-45.6 104.5-45.6-45.4 5.5-101.9-31.2-136.4-58.1l-3.7-12.1c36.3 6.8 73.8-24.6 73.8-24.6-21.6.7-45-17.8-65.7-40.9a298 298 0 0 1-62.5-111.5l-54.8-178.1a240.5 240.5 0 0 0-47.2-89.2l64.4-104.2a15 15 0 0 0-12.1-22.9c-40-2-104.9 47-129.3 66.3a240.4 240.4 0 0 0-57.8-20.2 371.6 371.6 0 0 1 21.9-38.4 10.2 10.2 0 0 0-11.2-15.4c-26.7 7.1-55.7 28.1-64.7 34.9a1.2 1.2 0 0 1-1.9-1.3c4.1-16.7 21.1-88.9 7.5-95.5s-36.2 52.6-44.6 74.7a1.2 1.2 0 0 1-2.4-.5c1.7-24.4 4.8-91.4-13-88-19.7 3.7-56.2 87.7-63.1 104.1a1.2 1.2 0 0 1-2.2 0c-4.6-11.7-22.9-55.8-29.2-40.3s.6 43.4 3.4 54.3a1.2 1.2 0 0 1-2 1.2c-19-17-51.5-17.4-73.9-15.2a10.2 10.2 0 0 0-6.3 17.4 106.3 106.3 0 0 1 9.7 11.3 240.3 240.3 0 0 0-65.7 29.2l-5.2-3.5c-41.5-34.1-105.9-77.5-130.8-42.6a15 15 0 0 0-.9 16l60.5 108.1a240.3 240.3 0 0 0-33 93.8l-30.5 160.3a272.3 272.3 0 0 1-49.4 112.8c-17.8 23.7-38.8 43.5-60.1 45.7 0 0 41.5 26.2 76.6 14.4l-2.4 12.7c-30.6 31.2-81.6 75-127.2 75.7 0 0 56.6 62.3 106.5 33.2l-1.8 9.7c-13.6 14.7-32 29.7-47.6 24.8a121.7 121.7 0 0 0 39.9 15.9l-86.8 456.2a248.9 248.9 0 0 0 12.6 117.6l-.6.2c-38.1 9.1-130.4 43.4-184.5 78.3-26.5 17.1-10.1 55.9 23.2 55.3l266.9-5.2q6.8 4.2 13.9 7.9v3.3c.4 23.3-6.7 42.4-29.9 43.6-15.6.8-28.2 9.9-30.6 21.1-4.7 21.5 5.8 38.9 27.2 40.4l84.3 5c26.4 1.6 51.9-11.3 65.3-34.1a71.4 71.4 0 0 0 8.8-23.9l5-26.6h533.6l3.5 20.7a71.6 71.6 0 0 0 43.1 54.3 53.5 53.5 0 0 0 22.3 4l91.8-3c22-2.2 30.1-15.7 27.9-36.9-.7-6.9-6.2-24.5-24.5-25.5-15.8-.9-25.2-8.6-28.1-21.9a246.8 246.8 0 0 0 65.3-28l261.6 5c33.3.5 49.3-37.6 23.2-55.4z" fill="none"></path></clipPath><g clip-path="url(#furClipPath)"><defs><linearGradient id="bodyFur__a" x1="1713.27" x2="1713.27" y1="794.55" y2="927.94" gradientUnits="userSpaceOnUse"><stop offset="0" stop-color="gray"></stop><stop offset=".14" stop-color="#797979"></stop><stop offset=".35" stop-color="#646464"></stop><stop offset=".6" stop-color="#434343"></stop><stop offset=".89" stop-color="#141414"></stop><stop offset="1"></stop></linearGradient><linearGradient id="bodyFur__b" x1="1041.15" x2="1175.15" y1="888.73" y2="888.73" href="#bodyFur__a" xlink:href="#bodyFur__a"></linearGradient></defs><g style="isoliation:isolate"><path fill="#f7bc56" d="M724.1 562.8h1509.4v1824.09H724.1z"></path><path style="mix-blend-mode:multiply" fill="url(#bodyFur__a)" d="M1781.2 799.5s-38-26-102.1 41.4l-33.7 40.5 56.1 46.5z" opacity=".4"></path><path style="mix-blend-mode:multiply" fill="url(#bodyFur__b)" d="M1041.2 839.5s27.5-19 71.6-.8a122.2 122.2 0 0 1 47.5 35.1l14.8 17.9-37.7 54.9z" opacity=".4"></path><path fill="#b1aeb9" d="M1181.5 2294.7c-5.6-14.6 3.2-56.8 20.7-141.2 10.4-50.5 18.8-83.5 24-105 38.7-162 50.8-387.1 250.3-384.1 172.9 2.6 160.9 180.7 194 366.3 6.9 38.6 13.7 77.2 20.7 115.8 4 22.6 7.9 45.3 12 68 9.4 53.2 9.6 54.1 9.3 56.2-9.7 78.5-486.6 140.6-531 24z"></path><path fill="#c47e33" d="M982.9 1602.7l88.8-38.4a33.4 33.4 0 0 1 38.1 8.4c15.5 17.3 37.2 47.2 47.5 87.6a34.6 34.6 0 0 1 0 16.3 283.6 283.6 0 0 1-23 60.7 33.3 33.3 0 0 1-36.7 17l-74.4-16.3a33.7 33.7 0 0 1-23.1-18.3l-34.1-72a33.5 33.5 0 0 1 16.9-45zM1049.1 1778.1c16.3-1.9 41.7-1.8 67.8 9.8a21.5 21.5 0 0 1 12.1 14.3c3.9 14.7 9.9 43.7 6.1 72.5a21.5 21.5 0 0 1-11 15.9c-12.1 6.8-33 17.9-40.4 17.9s-37.4-26.4-51.7-39.7a21.5 21.5 0 0 1-6.9-17.9l4.6-53a21.8 21.8 0 0 1 19.4-19.8zM958.3 1874l32.1-26.9a18.8 18.8 0 0 0 6.4-10.9l7.9-42.3a18.7 18.7 0 0 0-2.7-13.8l-19.8-30.3c-9.2-14-30.8-9.9-34.2 6.6l-20.2 99.4c-3.6 17.4 16.9 29.6 30.5 18.2zM1198.9 1672.9l47.1-21.9a23.1 23.1 0 0 1 31.9 14.1c3.2 10.5 5.2 25.5 3.3 46.4-3.2 35-49 46.5-81.8 50.2a23 23 0 0 1-25-28.9l12-44.9a22.9 22.9 0 0 1 12.5-15zM1158.9 1793.8l3 30.7a9.4 9.4 0 0 0 2.6 5.8 35.7 35.7 0 0 0 27.4 10.6 9.4 9.4 0 0 0 8.8-6.7l10.9-34.1a9.6 9.6 0 0 0-7.1-12.4c-10.1-2.2-25.4-5.1-36.3-4.5a9.7 9.7 0 0 0-9.3 10.6zM1167.3 1851.5h15.8a9.1 9.1 0 0 1 8.6 5.9c1 2.8 2.2 5.8 2.8 7.4s.6 4.8.6 8.3a9.2 9.2 0 0 1-10 8.8l-18.6-1.7a9.1 9.1 0 0 1-8.3-9.1v-10.5a9.1 9.1 0 0 1 9.1-9.1zM886.9 2006.8s35.9-34.3 67.5-53.5a22.8 22.8 0 0 1 34.7 18.8c.8 21 3.4 46.6 11.1 56.5l24 34.9-29.8 33a27.4 27.4 0 0 1-29.6 7.5l-66-23.2zM1037.1 2100.8l-19.3 17.5a36.4 36.4 0 0 0-12 26.2l-1.6 77.4 42.5 29.6-2.9-107.4zM935.5 2117.4l24.9 8.9a36.4 36.4 0 0 1 23.9 30.9l4.8 50.6-46.7-65.8zM1918.4 1597.2c-17.7-5.6-43.3-13.2-64.7-17.2a39.7 39.7 0 0 0-41.4 18.7c-10.9 18.1-25 45-29.6 69.8a39.6 39.6 0 0 0 5.5 28.3c9.5 15.2 27.2 42.4 42.9 61.7a39.8 39.8 0 0 0 49 10.2c20.2-10.4 45.2-31.6 66.5-41.8 18.4-8.9 44.6-17.4 41.4-31.6l-14.1-61.8c-3.1-13.7-42-32-55.5-36.3zM1955.7 1761c-23.3 12.3-54.1 30.3-72.1 47.7a29.9 29.9 0 0 0-8.5 27.6l11.2 52.5a30.2 30.2 0 0 0 8.2 14.9l35.1 34.5a29.6 29.6 0 0 0 33.6 5.6c17.1-8.2 41.7-21 57.9-34.2 9.6-7.7 18.4-25.5 14.6-37.1l-32.7-99.4c-5.8-17.5-31-20.7-47.3-12.1zM1757.3 1723.3l59.4 83.6a14 14 0 0 1 2.5 7.9 13.7 13.7 0 0 1-5.2 10.8l-23.9 19a13.9 13.9 0 0 1-11.3 2.7c-13.4-2.7-43.5-10.6-49.6-26.8l-20.3-56.5a13.8 13.8 0 0 1 2.5-13.6l24.3-28.2a13.8 13.8 0 0 1 21.6 1.1zM1848.1 1844.8l12.9 35.3a9.7 9.7 0 0 1-.7 8.3l-13.2 23.6a9.9 9.9 0 0 1-15.8 2l-29.8-30.7a10.1 10.1 0 0 1-.5-13.3l20.6-24.9a9.8 9.8 0 0 1 4.4-3.1l9.6-3.2a9.9 9.9 0 0 1 12.5 6zM1853.4 2185.6l15.2-1.6a56.4 56.4 0 0 1 32 5.9l53.4 27.3-63.5 42.2-40 14.5zM2011.9 1997l-19.7 5.7a16.6 16.6 0 0 0-12 16v4.2a16.6 16.6 0 0 0 8.3 14.4l24.6 14.3a49.2 49.2 0 0 0 36.2 5.2 22.6 22.6 0 0 0 11.9-36.3l-9.4-11.2a38.3 38.3 0 0 0-39.9-12.3zM2027.3 2096.8l-42.6-25.7a29.1 29.1 0 0 0-31.3.7l-29 19.3a29.4 29.4 0 0 0-11.8 15.7l-6.8 22.3a29.1 29.1 0 0 0 11.1 32.6l51.5 36.2 42.4-48.4zM1255.1 972.3l-140.7 131.2a43.3 43.3 0 0 1-68-11.7l-115.2-222a43.2 43.2 0 0 1 7-49.7l73.5-77.8a43.3 43.3 0 0 1 49.8-9.6L1218 806a43.3 43.3 0 0 1 23.4 27.9l25.9 95.4a43.4 43.4 0 0 1-12.2 43zM1591.2 868.3l-9.8 25.4a15.4 15.4 0 0 0 2.6 15.4l17.3 20.4a15.4 15.4 0 0 0 21.9 1.5l25.1-22.6a15.2 15.2 0 0 0-1.3-23.8l-32.7-23.3a15.3 15.3 0 0 0-23.1 7zM1285.4 690.3l-36.8 53.2a22 22 0 0 0-2.1 21.2l37.4 84.9a21.8 21.8 0 0 0 14 12.2l45.2 12.9a22 22 0 0 0 19.1-3.6l15.9-11.9a22.2 22.2 0 0 0 8.3-12.8l14.1-64.4a21.7 21.7 0 0 0-6-20.3l-75.8-74.5a21.9 21.9 0 0 0-33.3 3.1zM1507.5 688l-68.6 127a21.2 21.2 0 0 0-2.5 8.1l-4.5 42.4a21.8 21.8 0 0 0 6.3 17.8l25.2 25.3a21.8 21.8 0 0 0 23.5 4.9l56.6-22.5a21.6 21.6 0 0 0 13.2-15.4l33.9-147.7a21.9 21.9 0 0 0-10.4-23.8l-42.6-24.7a21.7 21.7 0 0 0-30.1 8.6zM1564 921.6l9.2 17.1a15.3 15.3 0 0 1-6.8 21.1l-18.1 8.8a15.5 15.5 0 0 1-16.4-1.9l-18.3-14.9a15.4 15.4 0 0 1 3.9-26.1l27.3-11.1a15.3 15.3 0 0 1 19.2 7z"></path><path fill="#c47e33" d="M1591.2 851.2l30.7 5.3 65.2 62.1 63.5 90.5 66.1-261.8-69.9-37.2-124.9 77.6-30.7 63.5z"></path><path fill="#c47e33" d="M1687.1 918.6l-46.1 31.2a38.3 38.3 0 0 0-23.8 35.4v40.4a38.1 38.1 0 0 0 21.5 34.3l74.6 36.1a56.9 56.9 0 0 0 68.8-15l-.9-25.5-30.6-46.4zM1308.2 893.8l25 6.5a13.4 13.4 0 0 1 9.8 15.6l-5.6 27.7a13.5 13.5 0 0 1-15.2 10.6l-19.4-3a13.3 13.3 0 0 1-11.3-13.2v-31.2a13.4 13.4 0 0 1 16.7-13zM1777 1608.2l-22.4 61.7a34.1 34.1 0 0 1-8.8 13.3l-17.7 16.4a33.9 33.9 0 0 1-44.4 1.6l-39.7-31.8a33.8 33.8 0 0 1-11.9-34l11.6-51.3a33.9 33.9 0 0 1 30.1-26.3l51.7-4.7a34.3 34.3 0 0 1 20.3 4.6l16.5 9.7a34 34 0 0 1 14.7 40.8zM1772.3 1557.1l25.7 15.2a11.2 11.2 0 0 0 13.4-1.7l10.1-10a11 11 0 0 0-3.1-17.7l-27.2-13.1a11.1 11.1 0 0 0-12.2 1.8l-8.6 7.9a11 11 0 0 0 1.9 17.6zM1662.9 1713.4l21.6 16.9a8.9 8.9 0 0 1 3.1 4.7l17.1 64.4a8.8 8.8 0 0 1-11.1 10.6l-22-7a8.7 8.7 0 0 1-5.9-6.4l-16.8-74.4a8.8 8.8 0 0 1 14-8.8zM1164 1545.5a24.5 24.5 0 0 0-15.8 34c12.7 27.2 32.3 66.3 42 69.3s48-9.7 69.1-17.6a24.7 24.7 0 0 0 15.9-21.3l4.3-62a24.5 24.5 0 0 0-30.9-25.4zM1221.5 770.8l-24.7 48.7 90.7 18.5-11.8-59.8-54.2-7.4zM1602.8 754.6s-50.5 24.6-48.6 27.1l37 43.1 5.3-7.3z"></path><path fill="#c47e33" d="M1603.3 850.4l50.9 36.4 49.3 52.7 49.3 76.6 38.9 63.3c5.2-8.1 1193.7-742.5 1192.5-747.9-2-8.7 0-319.9 0-319.9H1959.8zM1222.2 859.5L818 11.6H18.2v903.2l1046 176.5 38.8-90 28.2-56.9 24.8-29.6 38.3-35.3 27.9-20z"></path><path fill="#c47e33" d="M1491.9 716.8l80.7 37.8 30.7 35.1 50.1-15.2 7.8-111-134.7-52-34.6 105.3z"></path></g></g></g><g id="shadow" style="mix-blend-mode:multiply"><defs><clipPath id="shadowClipPath"><path d="M2200.5 2195.7c-43-29.4-132.4-61.7-179.8-75.5l-.8-.3a248.1 248.1 0 0 0 6.4-155.9l-134.5-437.7a121.2 121.2 0 0 0 41.2-22.3c-16.2 7.6-39.1-8.1-54.9-21.9l-2.2-7.2c54.7 26.7 104.5-45.6 104.5-45.6-45.4 5.5-101.9-31.2-136.4-58.1l-3.7-12.1c36.3 6.8 73.8-24.6 73.8-24.6-43.1 1.4-93.7-74.1-115-109.3l-68-221.2a240.5 240.5 0 0 0-47.2-89.2l73.3-118.6c-32.4-31.9-120.8 34.6-150.3 57.8a240.4 240.4 0 0 0-57.8-20.2 371.4 371.4 0 0 1 21.9-38.3c5.1-7.8-2.2-17.9-11.2-15.5-26.7 7.1-55.7 28.1-64.7 34.9a1.2 1.2 0 0 1-1.9-1.3c4.1-16.7 21-88.9 7.5-95.5s-36.2 52.6-44.6 74.7a1.2 1.2 0 0 1-2.4-.5c1.7-24.4 4.8-91.4-13-88-19.7 3.7-56.1 87.7-63.1 104.1a1.2 1.2 0 0 1-2.3 0c-4.7-11.7-22.9-55.7-29.2-40.3s.6 43.3 3.4 54.3a1.2 1.2 0 0 1-2 1.2c-19-17-51.5-17.4-73.9-15.2a10.2 10.2 0 0 0-6.3 17.4 106.3 106.3 0 0 1 9.7 11.3 240.3 240.3 0 0 0-65.7 29.2l-5.2-3.5c-44.5-36.6-115.4-83.9-135.6-33.6l64.5 115.2a240.3 240.3 0 0 0-33 93.8l-38.8 204c-17.3 35.5-58.5 110.3-101.2 114.7 0 0 41.5 26.2 76.6 14.4l-2.4 12.7c-30.6 31.2-81.6 75-127.2 75.7 0 0 56.6 62.3 106.5 33.2l-1.8 9.7c-13.6 14.7-32 29.7-47.6 24.8a121.7 121.7 0 0 0 39.9 15.9l-86.8 456.2a248.9 248.9 0 0 0 12.6 117.6l-.6.2c-38.1 9.1-130.4 43.4-184.5 78.3-26.5 17.1-10.1 55.9 23.2 55.3l266.9-5.2q6.8 4.2 13.9 7.9v3.3c.4 23.3-6.7 42.4-29.9 43.6-15.6.8-28.2 9.9-30.6 21.1-4.7 21.5 5.8 38.9 27.2 40.4l84.3 5c26.4 1.6 51.9-11.3 65.3-34.1a71.4 71.4 0 0 0 8.8-23.9l5-26.6h533.6l3.5 20.7a71.6 71.6 0 0 0 43.1 54.3 53.5 53.5 0 0 0 22.3 4l91.8-3c22-2.2 30.1-15.7 27.9-36.9-.7-6.9-6.2-24.5-24.5-25.5-15.8-.9-25.2-8.6-28.1-21.9a246.8 246.8 0 0 0 65.3-28l261.6 5c33.3.5 49.3-37.6 23.2-55.4z" fill="none"></path></clipPath><linearGradient id="shadowGradient" x1="1713.27" y1="794.55" x2="1713.27" y2="927.94" gradientUnits="userSpaceOnUse"><stop offset="0" stop-color="gray"></stop><stop offset=".14" stop-color="#797979"></stop><stop offset=".35" stop-color="#646464"></stop><stop offset=".6" stop-color="#434343"></stop><stop offset=".89" stop-color="#141414"></stop><stop offset="1"></stop></linearGradient><linearGradient id="shadowGradient2" x1="1041.15" y1="888.73" x2="1175.15" y2="888.73" href="#shadowGradient" xlink:href="#shadowGradient"></linearGradient></defs><g clip-path="url(#shadowClipPath)"><path d="M1066.8 1533.3c-21.1 33.1-27.3 41.8-33.7 78.2-20.4 117.1-20.8 257.1-28 315.4a910.2 910.2 0 0 0-6.8 98.4v3.4c23.5 26 47.6 88.8 52.6 176.8l1.3 49s-31.3-.8-81-.8c-62 0-110.8-111.7-79.2-278.2 17.8-93.4 67.3-328.4 114-432.1 41.5 2.5 60.8-10.1 60.8-10.1zM1226.5 2040.4c-24.3 147.7 54.3 178.3 68.5 181.6 86.5 15.5 223.8 8.8 268.5-7 41.8-14.8 129.9-58.5 108-189.5l43 256.8h-533.6zM1854.3 2157.4s29.9-91.4 66.3-124.9c-39.4 75 14.1 92.7 28.1 87.7 53.7-19.2 75-66.7 79.2-150l65.3 116.3s-55 256-204 214l-38.7-18.1z" fill="#7f7f7f" opacity=".2"></path><path d="M1781.2 799.5s-38-26-102 41.5l-33.7 40.5 56.1 46.5z" opacity=".4" fill="url(#shadowGradient)" style="mix-blend-mode:multiply"></path><path d="M1041.2 839.5s27.5-18.9 71.6-.8a122.7 122.7 0 0 1 47.5 35.2l14.9 17.9-37.7 54.9z" opacity=".4" fill="url(#shadowGradient2)" style="mix-blend-mode:multiply"></path><path d="M1047.6 1520.5c14.1-5.3 28.5-11.5 40.2-20.8a2.5 2.5 0 0 1 3.8 3.2c-3.7 7.1-7.9 13.9-13.5 19.5-9.2 9.4-21.6 15.2-34.3 18.4-7.2 1.8-63.7 5.5-59.5-5.6 2.5-6.6 22.8-3.9 28.1-4.7 12-1.8 23.7-5.7 35.2-10zM912 1457.7c14.9 9.3 33.6 10.5 51.1 8.8a188.3 188.3 0 0 0 105.1-45 2.5 2.5 0 0 1 3.9 3.1c-12.2 22.8-28 43.6-47.7 60.3-16.8 14.3-37.4 25.7-59.5 26.3s-45.5-12-52.2-33.1M968.2 1355.4c48.8.1 96.6-25.6 124.5-65.5a2.5 2.5 0 0 1 4.4 2.3c-8.9 24.9-23.8 47.7-41.3 67.6-10.1 11.5-22.2 22.7-37.3 24.6-7.1.9-14.3-.3-21.4-1.6l-24.1-4.3M1293.2 863.8c-81.5 23.6-133.7 93.8-162 217.6-15.3 136.6-101.3 213.1-101.3 213.1 54.3-91.1 76.3-278.9 76.3-278.9s23.5-135.7 171-178.5z" fill="#7f7f7f" opacity=".2"></path><path d="M1308.9 846.5c11.3 12.8 19.7 27.6 27.4 42.9a3.2 3.2 0 0 1-4.8 3.9c-19.8-15.4-39.2-31.5-54.7-51.1a58.9 58.9 0 0 0-5.7-6.6c-3.1-2.9-6.9-5-9.3-8.5-1.2-1.7-2.6-3.7-3.8-5.8a3.2 3.2 0 0 1 3.1-4.8c18.2 2.2 36.5 17.2 47.8 30zM1441.1 703.4c-10 55.7-32.8 109-39 165a3.2 3.2 0 0 1-6.2.7l-8.5-25.3c-2.9-8.6-5.8-17.3-7.3-26.3-3.4-20.3.8-41.1 7.5-60.6a234.1 234.1 0 0 1 28.2-56M1498.1 722.5c-8.6 28.1-17.2 56.2-24.9 84.6a285 285 0 0 0-6.8 30.3 3.2 3.2 0 0 1-6.3 0c-5.4-32.9-.1-67.4 5.4-100.7M1564.4 782.2c-15.8 13.8-27.3 31.7-38.7 49.3-6.9 10.8-13.9 21.6-19.2 33.2a3.2 3.2 0 0 1-6-.7c-3.2-15.2-5.6-30.7-3.1-46a74.4 74.4 0 0 1 34.1-50.7M1340.4 818.6a281.8 281.8 0 0 0 20.9 39.4 3.2 3.2 0 0 0 5.7-2.6 425.6 425.6 0 0 1-15.7-70.3c-.4-2.7-.7-5.4-2-7.8a8.9 8.9 0 0 0-1.8-2.3 3.2 3.2 0 0 0-5.2 1.9" fill="#7f7f7f" opacity=".2"></path></g></g><g id="highlight" style="isolation:isolate"><defs><clipPath id="highlightClipPath"><path d="M2201.8 2194.3c-43.1-29.3-132.5-61.4-180-75.1l-.8-.3a248.1 248.1 0 0 0 6-155.9l-135.4-437.4a121.2 121.2 0 0 0 41.2-22.5c-16.2 7.7-39.2-8-54.9-21.8l-2.2-7.2c54.8 26.6 104.4-45.8 104.4-45.8-45.4 5.6-101.9-31-136.5-57.8l-3.7-12.1c36.3 6.8 73.7-24.7 73.7-24.7-43.1 1.4-93.9-73.9-115.2-109.1l-68.4-221.1a240.5 240.5 0 0 0-47.4-89.1l73.1-118.8c-32.5-31.8-120.7 34.9-150.2 58.1a240.4 240.4 0 0 0-57.8-20.1 371.4 371.4 0 0 1 21.8-38.4c5-7.8-2.2-17.8-11.2-15.4-26.7 7.1-55.6 28.2-64.6 35a1.2 1.2 0 0 1-1.9-1.3c4.1-16.7 20.9-88.9 7.3-95.5s-36.1 52.7-44.5 74.8a1.2 1.2 0 0 1-2.4-.5c1.7-24.4 4.6-91.4-13.2-87.9-19.6 3.8-56 87.8-62.9 104.2a1.2 1.2 0 0 1-2.3 0c-4.7-11.7-23-55.7-29.3-40.3s.7 43.3 3.5 54.3a1.2 1.2 0 0 1-2 1.2c-19-16.9-51.5-17.3-74-15a10.2 10.2 0 0 0-6.2 17.4 106.3 106.3 0 0 1 9.8 11.3 240.3 240.3 0 0 0-65.6 29.3l-5.2-3.5c-44.6-36.5-115.6-83.7-135.7-33.4l64.7 115.1a240.3 240.3 0 0 0-32.8 93.8l-38.3 204.2c-17.2 35.5-58.3 110.4-101 114.9 0 0 41.5 26.1 76.6 14.2l-2.3 12.9c-30.6 31.3-81.4 75.2-127 75.9 0 0 56.7 62.2 106.6 33l-1.8 9.7c-13.5 14.7-32 29.8-47.6 24.9a121.7 121.7 0 0 0 39.9 15.9l-85.9 456.3a248.9 248.9 0 0 0 12.8 117.5l-.6.2c-38.1 9.2-130.4 43.7-184.3 78.7-26.5 17.2-10 55.9 23.3 55.2l266.9-5.7q6.8 4.1 13.9 7.9v3.3c.4 23.3-6.6 42.4-29.8 43.6-15.6.8-28.2 10-30.6 21.1-4.7 21.5 5.9 38.9 27.3 40.4l84.3 4.8c26.4 1.5 51.9-11.4 65.3-34.2a71.4 71.4 0 0 0 8.8-23.9l5-26.6 533.5-1.1 3.5 20.7a71.6 71.6 0 0 0 43.3 54.2 53.5 53.5 0 0 0 22.3 3.9l91.8-3.2c22-2.2 30.1-15.8 27.8-37-.8-6.9-6.3-24.5-24.5-25.5-15.8-.8-25.3-8.6-28.1-21.9a246.8 246.8 0 0 0 65.2-28.1l261.6 4.5c33.1.6 49-37.5 22.9-55.2z" fill="none"></path></clipPath><linearGradient id="highlightGradient" x1="1937.21" y1="2255.56" x2="1937.21" y2="1522.67" gradientUnits="userSpaceOnUse"><stop offset="0" stop-color="#fff" stop-opacity="0"></stop><stop offset=".72" stop-color="#fff"></stop></linearGradient><linearGradient id="highlightGradient2" x1="2116.32" y1="2248.97" x2="2116.32" y2="2113.28" href="#highlightGradient" xlink:href="#highlightGradient"></linearGradient><linearGradient id="highlightGradient3" x1="1044.74" y1="2253.08" x2="1044.74" y2="2117.39" gradientTransform="matrix(-1 0 0 1 1878.82 0)" href="#highlightGradient" xlink:href="#highlightGradient"></linearGradient><linearGradient id="highlightGradient4" x1="984.56" y1="2254.49" x2="984.56" y2="1542.14" href="#highlightGradient" xlink:href="#highlightGradient"></linearGradient><linearGradient id="highlightGradient5" x1="1875.41" y1="1443.95" x2="1875.41" y2="1512.52" href="#highlightGradient" xlink:href="#highlightGradient"></linearGradient><linearGradient id="highlightGradient6" x1="1889.74" y1="1331.47" x2="1889.74" y2="1433.59" href="#highlightGradient" xlink:href="#highlightGradient"></linearGradient><linearGradient id="highlightGradient7" x1="1750.79" y1="1277.61" x2="1750.79" y2="835.81" href="#highlightGradient" xlink:href="#highlightGradient"></linearGradient><linearGradient id="highlightGradient8" x1="1859.63" y1="1268.58" x2="1859.63" y2="1352.94" href="#highlightGradient" xlink:href="#highlightGradient"></linearGradient></defs><g clip-path="url(#highlightClipPath)" opacity=".3"><path d="M1834.6 1522.7c60.7 163.8 89.7 242.1 136.2 446.7s-80.7 286.2-80.7 286.2l61-35.6s62.9-74.9 72.3-107.8c20.6-71.9 22.7-66.1.7-180.7-32-166.4-122.5-394.8-132.5-405.9-20.9 10.1-57-2.9-57-2.9z" fill="url(#highlightGradient)" style="mix-blend-mode:overlay"></path><path d="M1999.2 2162.4s113.2 21.1 98.4 83.6l92.6 3 43.3-6.5-4.3-68.5-206.8-60.7z" fill="url(#highlightGradient2)"></path><path d="M951.2 2166.5s-113.2 21.1-98.4 83.6l-92.6 3-43.3-6.5 4.3-68.5 206.8-60.7z" fill="url(#highlightGradient3)"></path><path d="M983.9 1542.1l43 2.6s-111.5 487.6-73.8 555.7c47.6 85.9 95 122.5 95 122.5l4 31.6s-139.2-70-135.1-209 66.9-503.4 66.9-503.4z" fill="url(#highlightGradient4)"></path><path d="M1943.3 1501c-15.2 4.7-30.6 9.5-46.5 11s-32.5-.3-46.4-8.1-26-23.4-34.7-38.7c-3.3-5.8-6.5-11.9-8-18.4a2.4 2.4 0 0 1 3.5-2.7l57 31.1c8.1 4.5 16.4 9 25.3 11.4s18.8 2.7 27.3-1.1l2.1 3.1" fill="url(#highlightGradient5)" style="mix-blend-mode:overlay"></path><path d="M2000.2 1418.3a166.8 166.8 0 0 1-131.9 3.3c-39.3-16-71.8-47.9-88.8-86.8a2.4 2.4 0 0 1 3.6-2.9c36.3 24.5 81.2 33.3 122.7 48.2" fill="url(#highlightGradient6)" style="mix-blend-mode:overlay"></path><path d="M1546.4 836.5s59.1 33.4 81.1 64.7 67.7 70.3 87.6 165.3c60.2 287 240 198.1 240 198.1l-211-222.1s-22.8-75.2-62.7-127c-25.8-33.4-73.3-64.5-124.3-79.7z" fill="url(#highlightGradient7)" style="mix-blend-mode:overlay"></path><path d="M1905.7 1339.4c.5-.7 1.6.5 1 1.2s-1.6.5-2.4.3l-29-6.9c-11.1-2.7-22.3-5.3-32.8-9.8a104.5 104.5 0 0 1-55.1-55.6c37.3 17.6 75.4 35.4 116.2 40.8 5.9.8 12 1.3 17.5 3.8s10.3 7.3 10.7 13.3-2.6 10.3-6.6 13.7-9 5.4-13.9 7.3l5.4 5.5" fill="url(#highlightGradient8)" style="mix-blend-mode:overlay"></path></g></g><g id="bodyMask"><path d="M2200.5 2195.7c-43-29.4-132.4-61.7-179.8-75.5l-.8-.3a248.1 248.1 0 0 0 6.4-155.9l-134.5-437.7a121.2 121.2 0 0 0 41.2-22.3c-16.2 7.6-39.1-8.1-54.9-21.9l-2.2-7.2c54.7 26.7 104.5-45.6 104.5-45.6-45.4 5.5-101.9-31.2-136.4-58.1l-3.7-12.1c36.3 6.8 73.8-24.6 73.8-24.6-21.6.7-45-17.8-65.7-40.9a298 298 0 0 1-62.5-111.5l-54.8-178.1a240.5 240.5 0 0 0-47.2-89.2l64.4-104.2a15 15 0 0 0-12.1-22.9c-40-2-104.9 47-129.3 66.3a240.4 240.4 0 0 0-57.8-20.2 371.6 371.6 0 0 1 21.9-38.4 10.2 10.2 0 0 0-11.2-15.4c-26.7 7.1-55.7 28.1-64.7 34.9a1.2 1.2 0 0 1-1.9-1.3c4.1-16.7 21.1-88.9 7.5-95.5s-36.2 52.6-44.6 74.7a1.2 1.2 0 0 1-2.4-.5c1.7-24.4 4.8-91.4-13-88-19.7 3.7-56.2 87.7-63.1 104.1a1.2 1.2 0 0 1-2.2 0c-4.6-11.7-22.9-55.8-29.2-40.3s.6 43.4 3.4 54.3a1.2 1.2 0 0 1-2 1.2c-19-17-51.5-17.4-73.9-15.2a10.2 10.2 0 0 0-6.3 17.4 106.3 106.3 0 0 1 9.7 11.3 240.3 240.3 0 0 0-65.7 29.2l-5.2-3.5c-41.5-34.1-105.9-77.5-130.8-42.6a15 15 0 0 0-.9 16l60.5 108.1a240.3 240.3 0 0 0-33 93.8l-30.5 160.3a272.3 272.3 0 0 1-49.4 112.8c-17.8 23.7-38.8 43.5-60.1 45.7 0 0 41.5 26.2 76.6 14.4l-2.4 12.7c-30.6 31.2-81.6 75-127.2 75.7 0 0 56.6 62.3 106.5 33.2l-1.8 9.7c-13.6 14.7-32 29.7-47.6 24.8a121.7 121.7 0 0 0 39.9 15.9l-86.8 456.2a248.9 248.9 0 0 0 12.6 117.6l-.6.2c-38.1 9.1-130.4 43.4-184.5 78.3-26.5 17.1-10.1 55.9 23.2 55.3l266.9-5.2q6.8 4.2 13.9 7.9v3.3c.4 23.3-6.7 42.4-29.9 43.6-15.6.8-28.2 9.9-30.6 21.1-4.7 21.5 5.8 38.9 27.2 40.4l84.3 5c26.4 1.6 51.9-11.3 65.3-34.1a71.4 71.4 0 0 0 8.8-23.9l5-26.6h533.6l3.5 20.7a71.6 71.6 0 0 0 43.1 54.3 53.5 53.5 0 0 0 22.3 4l91.8-3c22-2.2 30.1-15.7 27.9-36.9-.7-6.9-6.2-24.5-24.5-25.5-15.8-.9-25.2-8.6-28.1-21.9a246.8 246.8 0 0 0 65.3-28l261.6 5c33.3.5 49.3-37.6 23.2-55.4z" fill="none"></path></g><g id="body"><path fill="none" stroke="#31323d" stroke-width="12.5" stroke-miterlimit="10" d="M1714.5 2282.4h-533.6m711.7-753.2l133.7 434.9c39 137.9-45.2 275-175.8 309.9m-799.8-20.3c-89.2-47.1-145.7-146.2-131.5-254.1l86.3-453.7" stroke-linecap="round"></path><path fill="#31323d" d="M1228.6 2040.8c-1.7 15.3-3.8 30.4-6 45.6l-3.5 22.7-3.8 22.6c-2.6 15.1-5.4 30.1-8.1 45.2l-8.3 45.1-16.6 90.3a76.3 76.3 0 0 1-3.5 12.1 77.5 77.5 0 0 1-5.4 11.4 75.5 75.5 0 0 1-16 19.4 78.7 78.7 0 0 1-45.9 18.8l-6.3.2h-6.1l-11.5-.7-22.9-1.3-45.8-2.8h-4.7l-1.8-.3a44.1 44.1 0 0 1-6.7-1.7 35.7 35.7 0 0 1-12.3-7.3 34.7 34.7 0 0 1-8.3-11.7 40.4 40.4 0 0 1-3.1-13.5 50.7 50.7 0 0 1 1-13.2l.2-.8v-1.7l.3-1.1a26.9 26.9 0 0 1 1.5-3.6 30.2 30.2 0 0 1 4.1-6.2 37.9 37.9 0 0 1 11-8.8 45.9 45.9 0 0 1 12.7-4.5 49 49 0 0 1 6.6-.9l2.7-.2 2.1-.3a22 22 0 0 0 4.3-1.2 18.5 18.5 0 0 0 3.8-1.9c4.6-3 7.7-8.4 9.4-14.8a70.5 70.5 0 0 0 1.8-20.8l-.9-22.9-1.9-45.9c-.6-15.3-1.3-30.6-1.8-45.9v.5c-.6-5-1.3-9.9-2-14.9-.4-2.5-.8-4.9-1.2-7.4s-.9-4.9-1.4-7.3-1-4.9-1.6-7.3l-1.8-7.2q-1.9-7.2-4.4-14.2c-.8-2.3-1.7-4.6-2.6-6.9s-1.8-4.6-2.9-6.8l-1.5-3.4-1.6-3.3-1.7-3.3-1.8-3.3-1.8-3.2-1.9-3.2-4-6.3c-1.4-2.1-2.8-4.1-4.3-6.2l-2.2-3-2.3-3a2.2 2.2 0 0 1 3.4-2.9l5.4 5.6q2.6 2.9 5.1 5.9c1.7 2 3.3 4 4.8 6.1l2.3 3.2 2.2 3.2c1.5 2.2 2.9 4.3 4.2 6.6l2 3.4 1.9 3.4q1.9 3.4 3.5 7c1.1 2.4 2.2 4.7 3.2 7.2q3 7.2 5.4 14.7c1.6 5 3 10 4.2 15q.9 3.8 1.7 7.6c.5 2.5 1.1 5.1 1.5 7.6.9 5.1 1.7 10.2 2.4 15.3v.5c.9 15.3 1.6 30.6 2.4 45.8l2.3 45.8 1.1 22.9a94.4 94.4 0 0 1-.1 12.3 71.8 71.8 0 0 1-1.9 12.5 54.5 54.5 0 0 1-2 6.3 42.8 42.8 0 0 1-3.1 6.2 33.3 33.3 0 0 1-9.8 10.4 35.1 35.1 0 0 1-13.2 5.3l-3.5.5-3 .2a35 35 0 0 0-4.7.6 31.9 31.9 0 0 0-8.8 3.2 23.9 23.9 0 0 0-6.9 5.5 16.1 16.1 0 0 0-2.2 3.3 13 13 0 0 0-1.2 3.7 36.6 36.6 0 0 0-.7 9.6 26.2 26.2 0 0 0 2 8.7 20.4 20.4 0 0 0 4.9 6.9 21.4 21.4 0 0 0 7.3 4.3 30.1 30.1 0 0 0 4.4 1.1l1 .2h3.9l45.8 2.7 22.9 1.4 11.5.7h10.5a64.5 64.5 0 0 0 37.6-15.2 61.4 61.4 0 0 0 13.1-15.7 65 65 0 0 0 7.4-19.2l17.4-90.1 8.7-45.1c2.9-15 5.8-30 8.8-45l4.7-22.5 5-22.4c3.4-14.9 7-29.8 11-44.6a2.2 2.2 0 0 1 4.9.6z"></path><path fill="#31323d" d="M1095.2 2319.6h-.5l-1.7.2a18.6 18.6 0 0 0-5.8 2 22.5 22.5 0 0 0-6.7 5.5 30.2 30.2 0 0 0-2.9 4 38.9 38.9 0 0 0-2.4 4.6l-.5 1.2-.5 1.2-.5 1.2-.4 1.3c-.5 1.7-.9 3.4-1.3 5l-.5 2.4c-.2.8-.3 1.6-.4 2.4s-.4 3-.6 4.4-.2 2.6-.3 3.7-.1 2.1-.2 2.9v2.7a6.3 6.3 0 1 1-12.5-.6 6.9 6.9 0 0 1 .1-.8l.5-2.7c.2-.9.3-1.9.6-3.1s.5-2.6.9-4.1.8-3.1 1.3-4.8l.8-2.6.9-2.7c.7-1.8 1.4-3.7 2.3-5.5l.6-1.4.7-1.4.7-1.4.8-1.4a46.9 46.9 0 0 1 3.6-5.2 37.5 37.5 0 0 1 4.2-4.5 28.8 28.8 0 0 1 9.4-5.8 23.9 23.9 0 0 1 7.7-1.5h3.1a2.2 2.2 0 1 1-.5 4.8zm-42.5-4.7h-.6l-1.6.4-2.5.9-.7.3-.8.4-1.6.9-1.7 1.1-1.7 1.3-.9.7-.8.8-1.6 1.7-1.5 2-.7 1-.6 1.1-1.3 2.2-1.1 2.4c-.3.8-.7 1.6-1 2.4l-.8 2.5-.8 2.4-.6 2.5a42.3 42.3 0 0 0-1 4.7l-.6 4.3a35.4 35.4 0 0 0-.3 3.7l-.2 2.8-.2 2.5v.4a6.3 6.3 0 1 1-12.5-.8 6.9 6.9 0 0 1 .1-.8l.5-2.7.6-3.1c.3-1.2.4-2.5.9-4l1.3-4.7a51.3 51.3 0 0 1 1.8-5.2l1-2.7 1.3-2.7 1.3-2.7c.5-.9 1.1-1.8 1.6-2.7l1.7-2.6 1.9-2.4.9-1.2 1.1-1.1 2.1-2.1 2.2-1.8 1.1-.9 1.2-.7 2.2-1.4 2.2-1.1 2.1-.8 1-.4 1-.3a26.5 26.5 0 0 1 3.2-.7l2.2-.2h.8a2.2 2.2 0 1 1 .4 4.4zm621-289.7l2.2 9.4c1.4 6.1 3.4 15.1 5.8 26.6 1.2 5.7 2.5 12.1 3.9 19l4.4 22.5 4.8 25.6 5 28.4 23.3 135.3c1.1 6.1 2 12.8 3.6 17.8a63.3 63.3 0 0 0 7.2 15.7 65.1 65.1 0 0 0 25.9 23.4l4.1 1.9 1.1.4 1 .4 2 .7a45.4 45.4 0 0 0 8.4 1.7l4.3.3h4.6l10-.3 40.1-1.4 39.4-1.2 2.5-.3 1.2-.2.9-.2 1.9-.4 1.9-.6a21.7 21.7 0 0 0 6.5-3.5 17 17 0 0 0 4.3-5.4c.2-.6.6-1.1.7-1.7l.6-1.8a30.4 30.4 0 0 0 .8-3.9 37.8 37.8 0 0 0 .4-4.1v-2.1s0-1.4-.1-2.2l-.2-2.2v-.3a.3.3 0 1 1 0-.1v-1.6l-.2-.8-.2-.9c-.1-.6-.4-1.3-.6-1.9-1.7-5-4.7-9.3-8.4-11.7a17.3 17.3 0 0 0-6.4-2.3l-1.8-.2-2.6-.2h-1.2l-1.5-.2-2.9-.5a39.5 39.5 0 0 1-10.9-4.2 30.1 30.1 0 0 1-9.1-8 34 34 0 0 1-5.3-10.4 47.2 47.2 0 0 1-1.9-10.7c-.1-.9-.1-1.7-.1-2.6v-7.2l.2-9.1.8-35.4.2-8.6v-4.6l.3-4.2.3-4.2c.1-1.4.2-2.7.4-4.2l1-8.4a250.4 250.4 0 0 1 6.4-31.5 277 277 0 0 1 9.1-28l2.7-6.4c.9-2.1 1.7-4.2 2.7-6.2l2.8-5.9c.9-1.9 1.8-3.9 2.8-5.7l2.9-5.4 1.4-2.6 1.5-2.5 2.9-4.9c.9-1.6 1.8-3.2 2.8-4.7l5.6-8.7 5.4-7.7 2.6-3.5 2.5-3.2c1.6-2.1 3.1-4.1 4.6-5.8l4.1-4.9 3.5-4 6.6-7.1a2.2 2.2 0 0 1 3.4 2.8l-5.6 7.8c-3.6 5.1-8.8 12.6-14.9 22.5l-4.7 7.8-4.8 8.8c-.9 1.5-1.7 3.1-2.5 4.7l-2.5 4.9-1.3 2.5-1.2 2.6-2.5 5.4a290.9 290.9 0 0 0-17.7 50.6l-.9 3.6-.4 1.8-.4 1.8-1.5 7.4-.4 1.9-.3 1.9-.6 3.8-.6 3.9-.3 1.9-.2 1.9-.9 7.8c-.2 1.3-.2 2.7-.3 4.1l-.3 4.2-.3 4.2v12.5l-.5 35.4v15.8s0 1.4.1 2a33.7 33.7 0 0 0 1.4 7.5 20.3 20.3 0 0 0 3.2 6.2c2.7 3.6 6.9 5.8 12 6.9l1.8.3.9.2h1.2l2.2.2 3 .3a31.3 31.3 0 0 1 11.7 4.2 31.8 31.8 0 0 1 9 8.5 40.3 40.3 0 0 1 5.4 10.5c.3.9.6 1.8.8 2.8l.4 1.4.3 1.6v2.9l.2 2.7c.1.9.1 1.8.1 2.8s.1 1.8 0 2.8a52 52 0 0 1-.5 5.7 44.4 44.4 0 0 1-1.2 5.8l-1 2.9c-.3 1-.8 1.9-1.3 2.9a31.3 31.3 0 0 1-7.9 10.1 35.8 35.8 0 0 1-10.9 6l-2.8.9-3 .7-1.5.3-1.3.2-2.5.3h-5.7l-5 .2-10 .4-20.1.7-40.1 1.3-10 .3h-5.4l-5.6-.4a59.7 59.7 0 0 1-11-2.3l-2.7-.9-1.4-.5-1.2-.5-4.9-2.3a79.2 79.2 0 0 1-31.4-28.6 77.2 77.2 0 0 1-8.7-19.2l-.7-2.6-.3-1.3c-.1-.4-.2-.9-.3-1.3l-.5-2.3-.2-1.2v-1.4l-1.5-9.3-22-135.6-4.5-28.5-3.8-25.7-3.2-22.7c-1-7-1.8-13.4-2.5-19.3-1.5-11.6-2.5-20.8-3.2-27.1l-1-9.6a2.2 2.2 0 0 1 3.8-.6z"></path><path fill="#31323d" d="M1783.2 2307.4h3.2a34.8 34.8 0 0 1 8 1.7 33.5 33.5 0 0 1 5.1 2.1 34.2 34.2 0 0 1 5.3 3.3 37.9 37.9 0 0 1 5 4.5c.7.9 1.5 1.7 2.2 2.7l1 1.4 1 1.5a46.8 46.8 0 0 1 3.3 6.1 56.5 56.5 0 0 1 2.4 6.2c.4 1 .6 2 .9 3s.5 2 .7 2.9l.6 2.8.4 2.6c.3 1.7.4 3.2.6 4.6s.3 2.5.3 3.5l.2 3.1a6.3 6.3 0 0 1-12.5.8 6.4 6.4 0 0 1 0-.7v-.3l.2-2.7c.1-.9.1-1.9.1-3.1s.1-2.6 0-4v-2.3l-.2-2.4c-.1-.8-.2-1.7-.3-2.5s-.2-1.8-.4-2.6a47.1 47.1 0 0 0-1.3-5.3 38.1 38.1 0 0 0-2.1-5.2l-.6-1.3-.7-1.2c-.4-.8-1-1.6-1.5-2.3a30.5 30.5 0 0 0-3.5-4.1 29.3 29.3 0 0 0-8-5.5 29.5 29.5 0 0 0-6.6-2.2l-1.9-.3h-.7a2.2 2.2 0 0 1-.2-4.8zm50.6-3.2h3.2a34.8 34.8 0 0 1 8 1.7 33.5 33.5 0 0 1 5.1 2.1 34.2 34.2 0 0 1 5.3 3.3 37.9 37.9 0 0 1 5 4.5c.7.9 1.5 1.7 2.2 2.7l1 1.4 1 1.5a46.8 46.8 0 0 1 3.3 6.1 56.6 56.6 0 0 1 2.4 6.2c.4 1 .6 2 .9 3s.5 2 .7 2.9l.6 2.8.4 2.6c.3 1.7.4 3.2.6 4.6s.3 2.5.3 3.5l.2 3.1a6.3 6.3 0 1 1-12.5.1v-.3l.2-2.7c.1-.9.1-1.9.1-3.1s.1-2.6 0-4v-2.3l-.2-2.4c-.1-.8-.2-1.7-.3-2.5s-.2-1.8-.4-2.6a47.1 47.1 0 0 0-1.3-5.3 38 38 0 0 0-2.1-5.2l-.6-1.3-.7-1.2c-.4-.8-1-1.6-1.5-2.3a30.5 30.5 0 0 0-3.5-4.1 29.3 29.3 0 0 0-8-5.5 29.5 29.5 0 0 0-6.6-2.2l-1.9-.3h-.7a2.2 2.2 0 0 1-.2-4.8z"></path><path fill="none" stroke="#31323d" stroke-width="12" stroke-miterlimit="10" d="M1206.2 862.9c-41.5-34.1-105.9-77.5-130.8-42.6a15 15 0 0 0-.9 16l60.5 108.1m472-90.4c24.5-19.2 89.4-68.2 129.3-66.3a15 15 0 0 1 12.1 22.9L1684 914.8" stroke-linecap="round"></path><path fill="#31323d" d="M1067.4 1534.9l-2.7 1.9-1.4.9-1.5.9-3 1.8-3.1 1.5-1.5.8-1.6.7-3.2 1.3c-2.2.7-4.4 1.5-6.6 2.1s-4.5 1.1-6.8 1.6-4.6.7-6.9.9-4.6.3-6.9.4h-3.5l-3.5-.2-3.5-.3-3.4-.4-3.4-.5-3.4-.6-6.8-1.5-6.7-1.9-6.5-2.3-6.4-2.6-6.3-2.9-3.1-1.6-1.6-.9-1.7-1a6.6 6.6 0 0 1 4.9-12l.8.2 1.8.4 1.9.2h1.9l2-.3 2.1-.5 2.1-.7 2.1-.8 2.1-1c1.4-.7 2.8-1.5 4.2-2.4l2.1-1.3 2-1.5 2-1.5 2-1.6 3.9-3.4a162.3 162.3 0 0 0 14.4-15.1q3.4-4 6.6-8.2l3.1-4.2 3-4.2 10.4 8a92.3 92.3 0 0 1-6.8 6.8 74.5 74.5 0 0 1-7.7 6 68.2 68.2 0 0 1-8.5 5 62.7 62.7 0 0 1-9.3 3.7 63.4 63.4 0 0 1-19.6 2.7 77.4 77.4 0 0 1-19.2-2.9 103.2 103.2 0 0 1-17.8-6.8 138.8 138.8 0 0 1-16.2-9.4 171.9 171.9 0 0 1-14.8-11.2c-2.4-2-4.7-4-6.9-6.1l-3.4-3.2-1.7-1.7-1.7-1.8a6.5 6.5 0 0 1 4.4-10.9h.4l5.5-.3 5.5-.7 1.4-.2 1.4-.3 2.7-.6 2.7-.6 2.7-.8 2.7-.8 2.7-.9 2.7-1 2.7-1 5.3-2.2 5.2-2.5 1.3-.6 1.3-.7 2.6-1.4 2.6-1.4 2.5-1.5 5-3 4.9-3.1c3.2-2.2 6.5-4.3 9.7-6.7s6.3-4.7 9.4-7.1 6.2-4.9 9.2-7.5 6-5.1 9-7.7l4.4-4 4.3-4.1 8.5-8.3 4.2-4.2 4.1-4.3 8.1-8.7 7.9-8.9c2.6-3 5.2-6 7.6-9l.2-.2a6.5 6.5 0 1 1 10.1 8.1v.2l-2.5 2.9-1.3 1.5-1.4 1.4-2.8 2.7-3 2.5a34 34 0 0 1-3.2 2.3 35.7 35.7 0 0 1-3.3 2.1l-3.4 1.9-3.6 1.6-.9.4-.9.3-1.8.6-1.9.6-1.9.5-1.9.5-1.9.4-3.8.7-3.8.4-3.8.2h-7.6l-3.8-.3-3.7-.4c-2.5-.4-4.9-.8-7.3-1.3l-3.6-.8-3.6-.9-7-2.2a143.6 143.6 0 0 1-13.6-5.4l-6.6-3.2-3.2-1.7-1.6-.9-1.7-1a6.4 6.4 0 0 1 2.7-11.8h.1a40.4 40.4 0 0 0 16.2-5.8 81.9 81.9 0 0 0 14.6-11.4c9.1-8.8 17.1-19.2 24.4-30q2.7-4.1 5.3-8.3l1.3-2.1 1.2-2 2.6-4.3c1.8-2.9 3.2-5.7 4.9-8.6l4.6-8.7a371.5 371.5 0 0 0 16-36 376 376 0 0 0 12.1-37.6c.9-3.2 1.6-6.4 2.4-9.6s1.5-6.4 2.1-9.6c1.3-6.4 2.6-13 3.8-19.6l15-78.9 7.5-39.4.2-1.2v-1.4l.4-2.5.7-5c.6-3.4 1.3-6.8 1.9-10.2s1.5-6.7 2.3-10l1.3-5 .7-2.5.7-2.5a249.6 249.6 0 0 1 15-38.3 242.3 242.3 0 0 1 21.2-35.3A248.6 248.6 0 0 1 1167 894a253.3 253.3 0 0 1 31.5-26.4 241.8 241.8 0 0 1 35.5-20.9 250.4 250.4 0 0 1 38.4-14.7 6.2 6.2 0 1 1 3.5 12 237.9 237.9 0 0 0-36.5 14 229.3 229.3 0 0 0-33.7 19.8 240.8 240.8 0 0 0-29.9 25.1 236 236 0 0 0-25.3 29.7 228.7 228.7 0 0 0-20.1 33.5 237 237 0 0 0-14.2 36.4l-.7 2.3-.6 2.4-1.3 4.7c-.8 3.2-1.5 6.3-2.2 9.5s-1.2 6.3-1.8 9.5l-.7 5-.4 2.5v1.5l-.2 1.2-7.5 39.4-15 78.9c-1.3 6.6-2.5 13.1-3.8 19.8-.7 3.3-1.5 6.6-2.2 10s-1.6 6.6-2.5 9.9a388.7 388.7 0 0 1-12.5 38.9 384.3 384.3 0 0 1-16.6 37.3l-4.8 9c-1.7 3-3.3 6.1-5 8.9l-2.5 4.3-1.4 2.2-1.3 2.2q-2.7 4.3-5.6 8.6c-7.6 11.3-16 22.3-26.2 32.1a94.5 94.5 0 0 1-17 13.2 53.2 53.2 0 0 1-21.4 7.5l2.8-11.8 1.3.8 1.4.8 2.9 1.6 6 2.9a130.8 130.8 0 0 0 12.4 4.9l6.3 2 3.2.8 3.2.7 6.4 1.1 3.2.4 3.2.2h6.4l3.2-.2 3.1-.3 3.1-.6 1.5-.3 1.5-.4 1.5-.4 1.5-.5 1.5-.5.7-.3.7-.3 2.8-1.2 2.7-1.5a25.1 25.1 0 0 0 2.6-1.6 23.8 23.8 0 0 0 2.5-1.8l2.4-1.9 2.2-2.2 1.1-1.1 1-1.2 2-2.4 10.1 8c-2.7 3.3-5.3 6.3-7.9 9.4l-8.1 9.1-8.3 8.9-4.3 4.4-4.3 4.3-8.8 8.5-4.5 4.2-4.5 4.1c-3.1 2.7-6.1 5.4-9.3 8s-6.3 5.2-9.5 7.7-6.5 5-9.9 7.4-6.7 4.7-10.2 7l-5.2 3.3-5.3 3.2-2.7 1.6-2.7 1.5-2.7 1.5-1.4.7-1.4.7-5.6 2.7-5.8 2.5-2.9 1.1-3 1.1-3 1-3.1.9-3.1.9-3.1.7-3.1.7-1.6.3-1.6.2c-2.1.3-4.3.7-6.4.9l-6.5.4 4.7-10.9 1.4 1.4 1.5 1.5 3.1 3c2.1 1.9 4.2 3.8 6.4 5.7a158.8 158.8 0 0 0 13.7 10.3 125.7 125.7 0 0 0 14.7 8.5 90.2 90.2 0 0 0 15.5 6 64.3 64.3 0 0 0 15.9 2.4 50.2 50.2 0 0 0 15.6-2.2 49.5 49.5 0 0 0 7.3-2.9 55.1 55.1 0 0 0 6.9-4 61.4 61.4 0 0 0 6.3-5 79.3 79.3 0 0 0 5.8-5.8h.1a6.6 6.6 0 0 1 10.3 8.2l-3.3 4.7-3.3 4.5q-3.4 4.5-7 8.7a175.3 175.3 0 0 1-15.6 16.4l-4.3 3.8-2.3 1.8-2.3 1.8-2.4 1.7-2.5 1.6c-1.7 1-3.4 2.1-5.3 3l-2.8 1.3-2.9 1.2-3.1 1-3.2.7-3.4.4h-3.5l-3.5-.4-3.5-.8 5.7-11.8 1.1.8 1.3.8 2.6 1.6 5.5 3.1 5.7 2.8 5.8 2.5 5.9 2.2 6 1.9 3.1.8 3.1.7 3.1.6 3.1.5 3.1.4 3.1.3c2.1.1 4.2.2 6.3.1l6.3-.3s4.2-.5 6.2-.9 4.1-.9 6.1-1.4l3-1 1.5-.5 1.5-.6 2.9-1.2 2.8-1.4 1.4-.7 1.4-.8 2.9-1.6a2.5 2.5 0 0 1 2.3 4.5zm488.4-706l4.9 1.2 2.5.6 2.5.7 5.1 1.5 5 1.6c6.6 2.1 13.1 4.6 19.6 7.3a250.6 250.6 0 0 1 36.9 19.4 246.7 246.7 0 0 1 33.1 25.3l3.8 3.5 3.7 3.6c2.5 2.4 4.9 5 7.3 7.5 4.7 5.1 9.3 10.4 13.5 15.9s8.3 11.2 12.2 16.9 7.4 11.8 10.7 17.9 6.3 12.4 9.2 18.8 5.3 12.9 7.5 19.5c.5 1.7 1.1 3.3 1.6 5l1.5 5 2.9 9.7 5.8 19.5 11.7 39 23.3 78 5.8 19.4 1.5 4.9.8 2.4.8 2.3 1.6 4.7 1.7 4.7c2.2 6.3 4.8 12.4 7.4 18.6s5.5 12.2 8.5 18.1a328.1 328.1 0 0 0 44.2 66.2c8.7 10 18 19.4 28.3 27.1a81.3 81.3 0 0 0 16.2 9.5 40.5 40.5 0 0 0 17 3.6 6.6 6.6 0 0 1 4.5 11.8l-1.5 1.2-1.5 1.1-3 2.2-6.1 4.1a143.9 143.9 0 0 1-12.7 7.2l-6.7 3.1-3.4 1.4-3.5 1.3c-2.3.9-4.7 1.6-7.1 2.3l-3.6.9-3.7.8-3.7.6-1.9.3-1.9.2-3.8.3h-3.9l-3.9-.2-1.9-.2-1.9-.2-1.9-.2-1.9-.4-1.9-.4-1-.2-.9-.3-3.8-1.1-3.7-1.4a35.9 35.9 0 0 1-3.6-1.6 34.2 34.2 0 0 1-3.5-1.9l-3.4-2.1-3.2-2.3-1.6-1.2-1.5-1.3-2.9-2.6a6.7 6.7 0 0 1 8.9-10.1h.1l.3.2c2.8 2.6 5.8 5.3 8.7 7.9l9 7.7 9.2 7.5 4.7 3.7 4.7 3.6 9.6 7 4.8 3.4 4.9 3.3c3.3 2.2 6.6 4.4 9.9 6.5s6.7 4.1 10.1 6.2 6.8 3.9 10.3 5.7 7 3.6 10.5 5.3l5.3 2.4 5.4 2.3 2.7 1.1 2.7 1 2.7 1 1.4.5 1.4.4 5.5 1.8 5.5 1.5 2.8.7 2.8.6 2.8.6 2.8.4 2.8.4 2.8.3 2.8.2h8.3l5.5-.4h.4a6.6 6.6 0 0 1 5.9 10.4l-1.4 2-1.4 1.9-2.9 3.6c-2 2.4-4 4.7-6.1 7a172 172 0 0 1-13.2 13 138.7 138.7 0 0 1-14.9 12.4 103.2 103.2 0 0 1-16.7 9.1 77.3 77.3 0 0 1-18.7 5.4 63.2 63.2 0 0 1-19.8-.1 62.4 62.4 0 0 1-9.6-2.4 68 68 0 0 1-9.1-3.8 74.2 74.2 0 0 1-8.4-5 92.1 92.1 0 0 1-7.6-5.8l8.8-8.9 3.5 3.8 3.7 3.8q3.7 3.7 7.6 7.3a163.8 163.8 0 0 0 16.2 13.2l4.3 2.9 2.2 1.3 2.2 1.3 2.2 1.2 2.2 1.1c1.5.7 3 1.4 4.5 1.9l2.3.8 2.2.6 2.2.4 2.2.2h2.1l2-.2 1.9-.4 1.8-.7.7-.2a5.6 5.6 0 0 1 5.4 9.5l-2.8 2.3-2.8 2.1c-1.9 1.4-3.8 2.6-5.7 3.8l-5.9 3.5-6.1 3.2-6.3 2.9-6.4 2.5-3.3 1.1-3.3 1-3.4.9-3.4.8-3.4.7-3.4.5c-2.3.3-4.6.5-6.9.6s-4.6.1-7 .1-4.6-.2-6.9-.6-4.6-.8-6.8-1.2l-3.4-.9-1.7-.4-1.6-.6-3.3-1.1-3.2-1.3-1.6-.7-1.5-.8-3.1-1.6a2.5 2.5 0 0 1 2-4.6h.2l3 1.2 1.5.6 1.5.5 3 1 3.1.8 1.5.4 1.6.3 3.1.6c2.1.2 4.2.5 6.3.6s4.2.1 6.3.1 4.2-.2 6.3-.5 4.2-.6 6.2-.9l3.1-.7 3.1-.8 3-.9 3-1 3-1.1 2.9-1.2 2.9-1.3 2.9-1.3 5.6-2.9 5.5-3.2 5.3-3.5 5.1-3.7 2.5-1.9 2.3-1.9 6.1 9.3-3.2 1.3-3.3.9-3.4.4h-3.3l-3.2-.3-3.1-.5-3-.7-2.9-.9a57.6 57.6 0 0 1-5.6-2.2l-2.7-1.3-2.6-1.4-2.5-1.4-2.5-1.5-4.8-3.1a174.2 174.2 0 0 1-17.7-14q-4.2-3.7-8.1-7.7l-3.9-4-3.9-4.2a6.3 6.3 0 0 1 8.7-9.1h.1a79.4 79.4 0 0 0 6.6 5 61.6 61.6 0 0 0 7 4.1 55.3 55.3 0 0 0 7.4 3.1 49.7 49.7 0 0 0 7.7 1.9 50.4 50.4 0 0 0 15.8 0 64.5 64.5 0 0 0 15.5-4.6 90.3 90.3 0 0 0 14.5-8 125.8 125.8 0 0 0 13.4-10.4 158.9 158.9 0 0 0 12.1-12.1c1.9-2.1 3.8-4.3 5.6-6.5l2.6-3.3 1.3-1.7 1.2-1.6 6.3 10.3-6.5.5h-9.7l-3.2-.3-3.2-.3-3.2-.5-3.2-.5-3.1-.6-3.1-.7-3.1-.7-6.1-1.6-6-1.9-1.5-.5-1.5-.5-2.9-1.1-2.9-1.1-2.9-1.2-5.7-2.4-5.6-2.6c-3.7-1.8-7.4-3.6-11-5.6l-10.8-6s-7-4.2-10.5-6.4-6.9-4.4-10.3-6.7l-5.1-3.5-5-3.5-9.8-7.3-4.9-3.7-4.8-3.8-9.5-7.7-9.3-7.9c-3.1-2.7-6.1-5.4-9.1-8.3l9.3-9.7 2.3 2.1 1.2 1 1.2.9 2.5 1.8 2.6 1.6a23.5 23.5 0 0 0 2.7 1.4 24.9 24.9 0 0 0 2.8 1.3l2.8 1.1 2.9.8.7.2.7.2 1.5.3 1.5.3 1.5.2 1.5.2h7.8l3.1-.2h1.6l1.6-.2 3.1-.5 3.1-.7 3.1-.8 6.2-2 3.1-1.2 3-1.2 6-2.8a130.5 130.5 0 0 0 11.6-6.5l5.5-3.7 2.7-1.9 1.3-1 1.2-.9 4.5 11.8a53.7 53.7 0 0 1-22.6-4.7 94.3 94.3 0 0 1-18.8-11.1c-11.5-8.6-21.3-18.6-30.4-29.1a341.4 341.4 0 0 1-45.8-69c-3.1-6.2-6-12.5-8.8-18.8s-5.3-12.8-7.6-19.3l-1.8-4.9-1.7-5-.8-2.5-.8-2.4-1.5-4.9-5.2-19.4-23.2-78-11.6-39-5.8-19.5-2.9-9.8-1.4-4.7c-.5-1.6-1-3.1-1.6-4.7-2.1-6.3-4.5-12.4-7.1-18.5s-5.5-12-8.7-17.8-6.6-11.5-10.1-17-7.5-10.9-11.6-16.1-8.4-10.2-12.9-15.1c-2.3-2.4-4.5-4.8-6.9-7.1l-3.5-3.5-3.7-3.4a234.2 234.2 0 0 0-31.5-24.1 238.1 238.1 0 0 0-35.1-18.4c-6.1-2.5-12.3-4.9-18.6-6.9l-4.7-1.5-4.7-1.4-2.4-.7-2.5-.6-4.9-1.2a6.2 6.2 0 0 1 3.2-12.1z"></path><path fill="#31323d" d="M1291 865l-5.4-7.8c-1.7-2.5-3.9-5.5-6.6-9s-5.7-7.4-9.4-11.5c-1.8-2-3.8-4.1-6-6.2l-.4-.4-.7-.8-.4-.4-.2-.2h-.1l-.2-.2-1.3-1.9c-.4-.6-.6-1.2-.9-1.8a16.1 16.1 0 0 1-1.1-8.1 16.7 16.7 0 0 1 3.1-7.8 16.3 16.3 0 0 1 7-5.4l2.2-.7 2.2-.4 3-.3 6.1-.5a163.1 163.1 0 0 1 26.7.5 116.9 116.9 0 0 1 14.5 2.5 85.7 85.7 0 0 1 14.9 5.2l3.7 1.9a34.8 34.8 0 0 1 3.6 2.2 34.2 34.2 0 0 1 3.5 2.5l1.7 1.4.9.7.4.3-.2-.2a5.5 5.5 0 0 0-1.1-.7 5.4 5.4 0 0 0-7.1 2.9 5.5 5.5 0 0 0-.4 2.2 5.4 5.4 0 0 0 .1 1l-.2-.9-.9-3.9c-.6-2.6-1.2-5.3-1.7-8-1.1-5.4-1.9-11-2.5-16.7q-.4-4.3-.6-8.8v-4.6s.1-3.1.3-4.7a43.5 43.5 0 0 1 .8-4.9c.2-.8.3-1.7.6-2.5l.9-2.6v-.3l.2-.5.2-.5.2-.5.3-.5.6-1 .3-.5.4-.5.4-.5.5-.5.6-.5.7-.5 1.6-.9a9.4 9.4 0 0 1 3.8-.8h1.8l1.5.4a13.2 13.2 0 0 1 3.9 2.1 25.6 25.6 0 0 1 4.2 4.2c1.1 1.4 2.1 2.7 3 4.1s3.4 5.4 4.9 8.2c3 5.5 5.6 11.1 8.1 16.7q1.9 4.3 3.7 8.6l.9 2.2.4 1.1-.3-.6a6 6 0 0 0-1.1-1.4 5.8 5.8 0 0 0-9.3 1.8v-.3l.9-2.2q7.4-17.2 15.7-34.6c5.6-11.6 11.5-23.2 18.2-34.7 3.3-5.7 6.9-11.5 10.9-17.1a105.1 105.1 0 0 1 6.5-8.3 46.1 46.1 0 0 1 8.6-7.9 20.1 20.1 0 0 1 7.1-3.1h3.8l1.4.2a13.7 13.7 0 0 1 4.9 2 18 18 0 0 1 5.5 6.1 32.7 32.7 0 0 1 2.6 5.8 67 67 0 0 1 2.6 10.8c.6 3.5 1 7 1.3 10.4a336.2 336.2 0 0 1 .6 40.4q-.4 10-1.1 19.9v-.3s.1.4-.1-.8a5.9 5.9 0 0 0-.6-1.8 6 6 0 0 0-.9-1.3 5.8 5.8 0 0 0-5.2-1.8 6 6 0 0 0-2.8 1.2 5.9 5.9 0 0 0-1.8 2.3l.3-.9 1.8-4.6 3.7-9.2c5-12.2 10.3-24.1 16.4-35.7a139.7 139.7 0 0 1 10.4-17.1c1-1.4 2.1-2.8 3.4-4.2a33.1 33.1 0 0 1 4.3-4.1 19.3 19.3 0 0 1 3.1-2 13.6 13.6 0 0 1 4.5-1.4 11.5 11.5 0 0 1 5.9.8l1.1.5h.3l.8.5 1.3 1.1.9.9a15.4 15.4 0 0 1 2.3 3.5 21.9 21.9 0 0 1 1.3 3.2 35.2 35.2 0 0 1 1.2 5.7 72.1 72.1 0 0 1 .5 10.1 174.6 174.6 0 0 1-1.5 18.8c-1.5 12.1-3.7 23.7-6.1 35q-1.8 8.4-3.7 16.5l-1 4-.5 2-.2 1v.2c-.1.3 0 0 .1-.8a5.1 5.1 0 0 0-.2-1.3 5.3 5.3 0 0 0-.4-1.1 5.4 5.4 0 0 0-5.5-2.9 5.5 5.5 0 0 0-2.1.7l-.3.2.2-.2.8-.6 3.3-2.4a286.8 286.8 0 0 1 26.6-17.1c4.5-2.5 8.9-4.8 13.3-6.9l6.7-3 3.4-1.3 3.4-1.3 3.4-1.2 3.4-1 1.7-.5.8-.2h5.1l1.3.2a16.2 16.2 0 0 1 9.1 4.4 16.8 16.8 0 0 1 4.7 8.4 15.8 15.8 0 0 1-.8 9.4 12.7 12.7 0 0 1-1 2.1l-.5.9-.4.6-1.6 2.4-5.8 9c-3.7 5.8-7 11.2-9.9 16-5.8 9.8-9.9 17.7-12.6 23.2l-1.7 3.6-1.2 2.7-1 2.2a2.5 2.5 0 0 1-4.7-1.6l.5-2.4c.3-1.6.9-4 1.8-7 .5-1.5.9-3.2 1.6-5l1-2.9 1.2-3.1c1.7-4.3 3.7-9.1 6.2-14.4s5.5-11.1 9-17.2c1.7-3.1 3.6-6.2 5.6-9.5l1.5-2.4.4-.6v-.3a2.1 2.1 0 0 0 .2-.6 3.8 3.8 0 0 0 .1-2.2 4.3 4.3 0 0 0-1.3-2.1 3.8 3.8 0 0 0-2.1-1h-1.6l-.7.2-1.5.4-3 .9-3 1.1-3 1.2-3 1.2-6.1 2.8c-4.1 1.9-8.3 4.2-12.5 6.6a273.9 273.9 0 0 0-25.2 16.5l-3.1 2.3-.8.6-.2.2-.7.5a7.8 7.8 0 0 1-11.1-3.2 7.9 7.9 0 0 1-.6-1.6 7.7 7.7 0 0 1-.2-1.8 7.8 7.8 0 0 1 .1-1.3l.2-.8v-.5l.2-1 .5-2 .9-4q1.8-8 3.5-16.2c2.2-11 4.3-22.4 5.6-33.9a161.5 161.5 0 0 0 1.2-17.3 58.8 58.8 0 0 0-.4-8.1 21.6 21.6 0 0 0-.7-3.4 5.5 5.5 0 0 0-.7-1.5h.1l.4.3h-.4l.6.3a2.7 2.7 0 0 0 1.3.2c.6-.1-.1 0-.8.6a29.7 29.7 0 0 0-4.9 5.5 126.8 126.8 0 0 0-9.2 15.4c-5.7 11-10.8 22.7-15.7 34.6l-3.6 9-1.7 4.5-.2.6v.3l-.2.5a8.4 8.4 0 0 1-13.8 2.4 8.3 8.3 0 0 1-1.3-1.8 8.2 8.2 0 0 1-.8-2.4 6.9 6.9 0 0 1-.1-1.4 6.7 6.7 0 0 1 0-1q.7-9.7 1-19.4a322.8 322.8 0 0 0-.7-38.6c-.3-3.1-.7-6.3-1.2-9.3a55.3 55.3 0 0 0-2-8.4 18.6 18.6 0 0 0-1.4-3.2 5 5 0 0 0-1-1.3h.9c.8-.1-1 .1-.2 0a6.7 6.7 0 0 0-1.9.9 32.7 32.7 0 0 0-5.8 5.4 91 91 0 0 0-5.6 7.2c-3.6 5-7 10.4-10.2 15.9-6.4 11-12.2 22.3-17.8 33.7s-10.7 22.7-15.6 34l-.9 2.1-.3.7a8.3 8.3 0 0 1-13.2 2.5 8.1 8.1 0 0 1-1.5-1.9l-.5-1.1-.4-1-.8-2.1-3.5-8.3c-2.4-5.5-4.8-10.8-7.5-15.8-1.3-2.5-2.7-4.9-4.2-7.1s-1.5-2.1-2.2-3a13 13 0 0 0-1.9-2c-.2-.2-.3-.2.2 0h1.1a4.4 4.4 0 0 0 1.7-.4l.6-.4.2-.2h.2l.2-.2h.1l-.2.5c-.1.1.1-.2 0 0v.2l-.5 1.5a15.4 15.4 0 0 0-.4 1.6 30.1 30.1 0 0 0-.6 3.5c-.2 1.2-.2 2.5-.3 3.7s-.1 2.6 0 3.8.2 5.2.4 7.8c.5 5.2 1.3 10.4 2.2 15.5.5 2.5 1 5.1 1.5 7.6l.9 3.7.2.9v-.7a7.8 7.8 0 0 1-.4 4.6 7.8 7.8 0 0 1-10.4 4.2 10.5 10.5 0 0 1-1.6-.9l-.6-.5-.3-.3-.6-.5-1.3-1a23.4 23.4 0 0 0-2.7-1.9 24.3 24.3 0 0 0-2.8-1.7l-2.9-1.6a72.9 72.9 0 0 0-12.5-4.4 104.1 104.1 0 0 0-12.8-2.3 150.5 150.5 0 0 0-24.5-.6l-5.7.4-2.7.2h-.6l-.5.2a4.1 4.1 0 0 0-2.5 3.2 4.3 4.3 0 0 0 .1 2l.2.4a.1.1 0 0 1 0 .2h.1l.2.2.4.5.2.2h.1l-.2-.2.4.5a87.6 87.6 0 0 1 6.2 7.4 114.8 114.8 0 0 1 13.7 24.1c1.2 2.9 2.1 5.2 2.6 6.8l.8 2.3a2.5 2.5 0 0 1-4.5 2.5z"></path><path fill="none" d="M1313.1 1432.7s-18.7 17.7-10.7 47.6c13.5-24.7 42-27.5 42-27.5s-43.9 66.7.9 112c-4.2-25.7 28-44.8 28-44.8s-13.4 65.6 42.5 91c41.1 18.7 15.9 74.2 15.9 74.2s148.4-101.7 112-168.9c0 0 45.7 11.7 44.3 48.5 0 0 59.7-79.8 13.1-146"></path><path fill="none" stroke="#31323d" stroke-width="12.5" stroke-miterlimit="10" d="M931.3 2117.4c-38.1 9.1-130.4 43.4-184.5 78.3-26.5 17.1-10.1 55.9 23.2 55.3l280.4-5.5" stroke-linecap="round"></path><path fill="#31323d" d="M840.5 2200.1l-.7.2-2 .6-3.1 1-4 1.5-4.5 2.1a49.4 49.4 0 0 0-4.7 2.8 36 36 0 0 0-4.4 3.5 26.3 26.3 0 0 0-3.7 4.2l-.8 1.1-.7 1.2a21.4 21.4 0 0 0-1.1 2.4c-.2.4-.3.8-.4 1.2a8.9 8.9 0 0 0-.3 1.2 18.1 18.1 0 0 0-.4 2.4v3.6c0 .4.1.8.1 1.2a15.6 15.6 0 0 0 .3 2.2c.2.7.3 1.4.5 2.1a36.6 36.6 0 0 0 1.2 3.6 29.8 29.8 0 0 0 1.2 2.8l1.2 2.4.2.3a6.3 6.3 0 0 1-11.3 5.5l-.3-.7-1.1-3.1c-.4-1-.7-2.2-1.1-3.7a48 48 0 0 1-1-4.9c-.1-.9-.2-1.9-.3-2.9a24.9 24.9 0 0 1-.1-3.2v-1.7l.2-1.7c.1-.6.1-1.2.2-1.7l.4-1.8a27.7 27.7 0 0 1 1-3.5 16.1 16.1 0 0 1 .7-1.7l.8-1.7a30.5 30.5 0 0 1 2-3.2l1.1-1.5 1.2-1.4a34.5 34.5 0 0 1 5.4-4.9 43.4 43.4 0 0 1 5.8-3.6 56.1 56.1 0 0 1 5.7-2.6l5.2-1.8 4.4-1.2 3.5-.7 2.3-.3h.8a2.2 2.2 0 0 1 .8 4.4h-.1zm-47.5 2h-.6l-1.7.5a38.1 38.1 0 0 0-5.9 2.5 32.6 32.6 0 0 0-3.6 2.2 29.2 29.2 0 0 0-3.5 2.9 23.5 23.5 0 0 0-2.9 3.7 18.7 18.7 0 0 0-2 4.2 21.2 21.2 0 0 0-.6 2.2c-.1.8-.3 1.5-.3 2.3a24.7 24.7 0 0 0 .1 4.6 34.5 34.5 0 0 0 .8 4.3c.4 1.4.7 2.7 1.2 3.9l.6 1.7.7 1.5.6 1.3.6 1.1 1.1 2.1v.2a6.3 6.3 0 0 1-11.2 5.6l-.3-.8-.9-2.7-.5-1.4-.5-1.7-.5-1.9c-.2-.7-.3-1.4-.5-2.2s-.6-3.3-.8-5.1a44.7 44.7 0 0 1-.2-5.9 34.2 34.2 0 0 1 .8-6.3c.2-1.1.6-2.1.9-3.2a29.7 29.7 0 0 1 1.3-3.1 26.9 26.9 0 0 1 3.6-5.6 31 31 0 0 1 4.5-4.3 35.8 35.8 0 0 1 4.8-3 38.6 38.6 0 0 1 4.6-2 43.3 43.3 0 0 1 7.1-2l2-.3h.8a2.2 2.2 0 0 1 .8 4.4h-.4z"></path><path fill="none" stroke="#31323d" stroke-width="12.5" stroke-miterlimit="10" d="M2020.7 2120.2c47.5 13.8 136.8 46.1 179.8 75.5 26.1 17.8 10.1 55.9-23.2 55.3l-261.6-5.1" stroke-linecap="round"></path><path fill="#31323d" d="M2107.6 2193.7h.8l2.3.4 3.5.8 4.5 1.4 5.2 2a58.4 58.4 0 0 1 5.6 2.8 45.8 45.8 0 0 1 5.7 3.8 36.7 36.7 0 0 1 5.3 5.1l1.2 1.5 1.1 1.6a31 31 0 0 1 1.9 3.3c.3.6.5 1.2.8 1.7s.5 1.2.7 1.8l.6 1.8.3.9.2.9a26.4 26.4 0 0 1 .6 3.5 25.1 25.1 0 0 1 .2 3.4 42.1 42.1 0 0 1-.4 6.2 50.3 50.3 0 0 1-1 5c-.4 1.5-.7 2.8-1.1 3.7l-1.1 3.2a6.3 6.3 0 0 1-11.8-4.1l.3-.7.2-.3 1.2-2.4c.4-.8.7-1.7 1.2-2.8s.8-2.3 1.2-3.7a31.5 31.5 0 0 0 .8-4.4 15.7 15.7 0 0 0 .1-2.4 16.7 16.7 0 0 0-.1-2.5v-1.2l-.2-1.3c-.1-.4-.2-.8-.4-1.3a12.8 12.8 0 0 0-.4-1.3 21.8 21.8 0 0 0-1.1-2.5l-.7-1.2-.8-1.2a28.5 28.5 0 0 0-3.7-4.4 38.4 38.4 0 0 0-4.4-3.8 51.5 51.5 0 0 0-4.7-3l-4.5-2.3a66.6 66.6 0 0 0-7.1-2.9l-2-.6-.7-.2h-.1a2.2 2.2 0 0 1 .8-4.3zm47.5 2h.8l2.1.4a44.7 44.7 0 0 1 7.1 2.4 40.4 40.4 0 0 1 4.5 2.3 38.2 38.2 0 0 1 4.7 3.3 33.1 33.1 0 0 1 4.4 4.5 30 30 0 0 1 4.8 8.8c.4 1.1.6 2.2.9 3.2s.4 2.2.6 3.3.3 2.2.2 3.2.1 2.1 0 3.1l-.2 2.9c-.3 1.8-.5 3.6-.8 5.2l-.5 2.3-.6 2-.5 1.8-.5 1.4-.9 2.7a6.3 6.3 0 0 1-11.8-4.1l.3-.7v-.3l1.1-2.2.6-1.2.6-1.4.7-1.6.6-1.7c.5-1.2.8-2.6 1.2-4l.4-2.2c.2-.7.2-1.5.3-2.3s.1-1.5.1-2.3-.1-1.6-.1-2.4-.2-1.6-.3-2.4a20.2 20.2 0 0 0-.6-2.3 20.6 20.6 0 0 0-2-4.4 25.7 25.7 0 0 0-2.9-3.9 31.5 31.5 0 0 0-3.5-3.2 34.4 34.4 0 0 0-3.6-2.4 39.4 39.4 0 0 0-5.9-2.9l-1.7-.6-.6-.2h-.1a2.2 2.2 0 0 1 1.1-4.1z"></path></g></g><g id="item_g"></g><g id="item_f"></g><g id="eye"><defs><linearGradient id="eyeColor1" x2="0%" y2="100%"><stop offset="0%" stop-color="#ef4b62"></stop></linearGradient><linearGradient id="eyeColor2" x2="0%" y2="100%"><stop offset="0%" stop-color="#ef4b62"></stop></linearGradient></defs><defs><clipPath id="eyeClipPath"><path fill="#fff" stroke="#31323d" stroke-width="10" stroke-miterlimit="10" d="M1291.6 1125.7c0 95.5-32.9 116.3-86.2 106.3a239.9 239.9 0 0 0-79.7-1.9c-56.6 8.5-94.1-14.6-93.5-100.6.4-70.6 56.3-129.2 126.8-130.7s132.6 55.2 132.6 126.9z" stroke-linecap="round"></path></clipPath><clipPath id="eyeClipPath2"><path fill="#fff" stroke="#31323d" stroke-width="10" stroke-miterlimit="10" d="M1573.5 1107.9c0 95.5 32.9 116.3 86.2 106.3a239.9 239.9 0 0 1 79.7-1.9c56.6 8.5 94.1-14.6 93.5-100.6-.4-70.6-56.3-129.2-126.8-130.7s-132.6 55.2-132.6 126.9z" stroke-linecap="round"></path></clipPath></defs><path fill="#fff" d="M1291.6 1125.7c0 95.5-32.9 116.3-86.2 106.3a239.9 239.9 0 0 0-79.7-1.9c-56.6 8.5-94.1-14.6-93.5-100.6.4-70.6 56.3-129.2 126.8-130.7s132.6 55.2 132.6 126.9z"></path><g clip-path="url(#eyeClipPath)"><circle cx="1180.3" cy="1149.9" r="77" fill="url(#eyeColor1)" transform="translate(-25 26.2) rotate(-1.3)"></circle><circle cx="1182.1" cy="1147" r="58.1" fill="#31323d" transform="matrix(1, -0.02, 0.02, 1, -24.98, 26.14)"></circle><circle cx="1210.8" cy="1105.3" r="30.9" fill="#fff" transform="translate(-24 26.8) rotate(-1.3)"></circle></g><path fill="none" stroke="#31323d" stroke-width="10" stroke-miterlimit="10" d="M1291.6 1125.7c0 95.5-32.9 116.3-86.2 106.3a239.9 239.9 0 0 0-79.7-1.9c-56.6 8.5-94.1-14.6-93.5-100.6.4-70.6 56.3-129.2 126.8-130.7s132.6 55.2 132.6 126.9z" stroke-linecap="round"></path><path fill="#fff" d="M1573.5 1107.9c0 95.5 32.9 116.3 86.2 106.3a239.9 239.9 0 0 1 79.7-1.9c56.6 8.5 94.1-14.6 93.5-100.6-.4-70.6-56.3-129.2-126.8-130.7s-132.6 55.2-132.6 126.9z"></path><g clip-path="url(#eyeClipPath2)"><circle cx="1684.8" cy="1132" r="77" fill="url(#eyeColor2)"></circle><circle cx="1687.1" cy="1133.1" r="58.1" fill="#31323d" transform="translate(517.2 2794.9) rotate(-88.7)"></circle><circle cx="1733.9" cy="1087.5" r="30.9" fill="#fff" transform="translate(608.6 2797.1) rotate(-88.7)"></circle></g><path fill="none" stroke="#31323d" stroke-width="10" stroke-miterlimit="10" d="M1573.5 1107.9c0 95.5 32.9 116.3 86.2 106.3a239.9 239.9 0 0 1 79.7-1.9c56.6 8.5 94.1-14.6 93.5-100.6-.4-70.6-56.3-129.2-126.8-130.7s-132.6 55.2-132.6 126.9z" stroke-linecap="round"></path></g><g id="item_e"></g><g id="mouth"><path d="M1376.1,1398.1s3.7,72.6,64.6,70.2c58.9-2.3,65.5-70.3,65.5-70.3s-21.2,30.3-59.3,30.7S1376.1,1398.1,1376.1,1398.1Z" fill="#595959" opacity=".2" style="mix-blend-mode:multiply"></path><path d="M1441.1,1206.7l0.7,4.9c0.2,1.5.5,3.5,0.8,5.6l1.2,7.1,1.5,8.4c0.6,3,1.2,6.1,1.9,9.3l1.1,4.9,0.6,2.5,0.6,2.5,1.3,5.1,1.4,5.1c0.5,1.7,1,3.4,1.5,5.1s1,3.4,1.6,5l1.7,4.9,1.8,4.7c0.6,1.6,1.2,3,1.8,4.5s1.2,2.9,1.8,4.3l1.8,4,1.8,3.7c1.1,2.4,2.4,4.5,3.4,6.4l2.8,4.8,2.6,4.1h0a1.5,1.5,0,0,1-2.4,1.7l-3.1-3.9-3.4-4.6c-1.2-1.8-2.7-3.9-4.1-6.2l-2.3-3.6-2.3-3.9c-0.8-1.3-1.5-2.8-2.3-4.2s-1.6-2.9-2.3-4.4l-2.3-4.7-2.2-4.8c-0.8-1.6-1.5-3.3-2.2-4.9s-1.5-3.3-2.1-5l-2-5.1-1.9-5.1-0.9-2.5-0.9-2.5-1.7-4.9c-1-3.2-2.1-6.4-3-9.4l-2.5-8.5-2-7.2c-0.6-2.2-1-4-1.4-5.5l-1.2-4.8a7.5,7.5,0,1,1,14.6-3.7Z" fill="#31323d"></path><path d="M1395,1323.2l0.9-1.2,2.5-3.5,1.6-2.5c0.6-.9,1.3-1.9,1.9-3l2-3.5c0.7-1.2,1.3-2.6,2-4l1.1-2.1,1-2.3c0.7-1.5,1.4-3.1,2.1-4.8l2-5.1c0.6-1.8,1.2-3.6,1.9-5.4s1.2-3.8,1.7-5.7,1.2-3.9,1.6-5.9l1.5-6,1.3-6.1c0.5-2,.8-4.1,1.2-6.1s0.7-4.1,1.1-6.1l0.9-6,0.4-3,0.3-2.9c0.4-3.9.9-7.6,1.2-11.2s0.6-7,.8-10.1l0.5-8.5,0.2-6.6,0.2-5.7v-0.2a7.5,7.5,0,0,1,15,.5c0,0.2,0,.4-0.1.7l-0.7,5.9-0.8,6.7-1.3,8.7c-0.4,3.2-1.1,6.6-1.7,10.3s-1.4,7.5-2.2,11.4l-0.6,3-0.7,3-1.4,6.1c-0.5,2.1-1.1,4.1-1.6,6.2s-1.1,4.2-1.8,6.2l-1.9,6.2-2.1,6.1c-0.7,2-1.5,4-2.2,5.9s-1.5,3.9-2.3,5.7l-2.4,5.5-2.5,5.1c-0.8,1.7-1.8,3.2-2.6,4.8l-1.2,2.3-1.3,2.1c-0.9,1.4-1.6,2.7-2.5,3.9l-2.4,3.4c-0.7,1.1-1.5,2.1-2.2,3l-1.9,2.5-2.8,3.2-1,1.1A1.5,1.5,0,0,1,1395,1323.2Z" fill="#31323d"></path><path d="M1368.2,1174.4a15,15,0,0,1,3.6-15.9c9-8.8,28.2-21.6,63.8-21.8s52.5,12.2,60.5,21a14.9,14.9,0,0,1,2.5,16.1h0a20.8,20.8,0,0,1-18.3,12.3c-10,.3-23.9,3.3-32.7,15.8a13.2,13.2,0,0,1-1.9,2.2l-0.3.3a17.7,17.7,0,0,1-25.3-1.5h0s-7.3-12.5-34.1-14.6a20.7,20.7,0,0,1-17.7-13.5v-0.3Z" fill="#31323d"></path><path d="M1509.9,1395l-0.5,1.8c-0.2.6-.3,1.3-0.6,2.1l-1.1,3-1.6,3.6c-0.7,1.3-1.3,2.7-2.2,4a56.1,56.1,0,0,1-6.6,9,63,63,0,0,1-9.9,8.9l-3,2-3.2,1.9c-2.2,1.2-4.4,2.4-6.8,3.4s-4.8,1.9-7.4,2.7l-3.9,1.1-3.9.9a77.5,77.5,0,0,1-16.3,1.3,81.8,81.8,0,0,1-16.2-2,83.6,83.6,0,0,1-14.9-4.9l-0.9-.4-0.4-.2h-0.5l-1.6-.8-3.3-1.7c-2.2-1.2-4.2-2.4-6.1-3.7a76.6,76.6,0,0,1-10.2-8.1,75.2,75.2,0,0,1-7.4-8,71.1,71.1,0,0,1-4.7-6.9c-0.6-1-1.1-1.9-1.5-2.7l-1-2-0.8-1.7a2.5,2.5,0,0,1,4.1-2.8h0.1l1.2,1.3,3.4,3.6c1.5,1.5,3.4,3.2,5.6,5.1s4.8,3.8,7.7,5.8a91.1,91.1,0,0,0,9.8,5.7l2.7,1.3,2.8,1.2,3,1.2,1.6,0.6,1.4,0.5a85.9,85.9,0,0,0,12.8,3.3,81.6,81.6,0,0,0,13.5,1.3,80.6,80.6,0,0,0,13.5-1l3.3-.6,3.2-.7c2.1-.5,4.2-1.1,6.2-1.8s3.9-1.4,5.8-2.3l2.7-1.3,2.6-1.4a65.7,65.7,0,0,0,9.2-6.1,60.7,60.7,0,0,0,7-6.4,72.2,72.2,0,0,0,4.8-5.6l1.6-2.2c0.5-.6.9-1.3,1.2-1.8l1-1.5A2.5,2.5,0,0,1,1509.9,1395Z" fill="#31323d"></path><path d="M1486.7,1248.7l4.1,0.2,11.6,0.7c10,0.7,24.2,2,41.1,4.6a545.1,545.1,0,0,1,57.2,11.7c10.3,2.7,20.9,5.8,31.6,9.4s21.3,7.6,31.7,12.1,20.7,9.5,30.5,14.9a301.1,301.1,0,0,1,27.9,17.4,260,260,0,0,1,24,19.2,220.6,220.6,0,0,1,19.2,19.7,202.8,202.8,0,0,1,14.1,18.4l2.7,4.2,2.5,4,2.2,3.7,1.9,3.4c1.2,2.1,2.2,4.1,3.1,5.8s1.6,3.2,2.2,4.4l1.7,3.7-1.8-3.6c-0.6-1.2-1.3-2.6-2.3-4.3s-2-3.6-3.2-5.7l-2-3.4-2.3-3.6-2.6-3.9-2.8-4.1a201.6,201.6,0,0,0-14.5-17.9,218.6,218.6,0,0,0-19.6-19,257.2,257.2,0,0,0-24.2-18.3,297.5,297.5,0,0,0-28-16.4c-9.8-5.1-20.1-9.7-30.5-13.9s-21.1-7.8-31.6-11.1-21.1-6-31.4-8.4a537.4,537.4,0,0,0-56.7-9.9c-16.7-2-30.7-3-40.5-3.4l-11.3-.4h-4.1a5,5,0,1,1,.1-10h0.1Z" fill="#31323D"></path><path d="M1654.6,1234.4l-1.5-1.1-4.3-2.9-6.8-4.2c-2.7-1.6-5.7-3.2-9.2-4.9l-5.4-2.5-2.9-1.3-3-1.2-3.1-1.2-3.2-1.1-3.3-1.1-3.4-1c-2.3-.7-4.6-1.2-7-1.8s-4.8-1-7.2-1.5-4.9-.7-7.4-1.1-5-.5-7.5-0.7-5-.2-7.5-0.3h-7.5l-3.7.2-3.6.3c-2.4.3-4.8,0.5-7,.9-4.6.7-9,1.7-13.2,2.7s-8,2.2-11.5,3.5l-5,1.8-4.4,1.8-7.1,3.3-4.4,2.3-1.5.9h-0.1a5,5,0,1,1-4.8-8.8h0.3l1.7-.8,4.9-2.2,7.7-3,4.8-1.7,5.4-1.6c3.8-1.1,7.9-2,12.4-2.9s9.1-1.6,14-1.9c2.4-.3,4.9-0.3,7.4-0.5h11.4l3.9,0.3c2.6,0.2,5.2.3,7.7,0.8s5.2,0.6,7.7,1.2,5.1,0.9,7.5,1.6,4.9,1.2,7.3,2,4.7,1.4,7,2.3l3.4,1.2,3.3,1.3,3.2,1.3,3,1.4,3,1.4,2.8,1.4,5.3,2.9c3.3,1.9,6.3,3.8,8.9,5.5s4.8,3.3,6.6,4.7l4.1,3.2Z" fill="#31323D"></path><path d="M1494.6,1274.5l7.8,0.7,4.3,0.7,5.1,0.9c3.5,0.9,7.5,1.7,11.7,3.1l3.2,1,3.3,1.3,3.4,1.3,3.4,1.5,3.5,1.6c1.2,0.5,2.3,1.2,3.5,1.8l3.5,1.9,3.5,2.1,3.5,2.2,3.4,2.4,3.4,2.5,3.4,2.6,1.7,1.3,1.6,1.4,3.3,2.8c2.2,1.9,4.2,3.9,6.3,5.9,4.1,4.1,8.1,8.2,11.7,12.5s7.1,8.6,10.3,12.9,6.1,8.6,8.8,12.7,5,8.1,7.2,11.8,4,7.2,5.5,10.2,2.9,5.8,4,8.1c2.1,4.5,3.1,7.2,3.1,7.2s-1.2-2.6-3.5-7c-1.2-2.2-2.6-4.8-4.4-7.8s-3.8-6.3-6.1-9.9-4.9-7.4-7.8-11.3-6-8-9.3-12.1-7-8.2-10.8-12.1-7.9-7.8-12.1-11.6l-6.5-5.3-3.3-2.5-1.7-1.2-1.7-1.2-3.4-2.3-3.4-2.2-3.4-2.1-3.4-1.9-3.4-1.8-3.4-1.6c-1.1-.5-2.2-1.1-3.4-1.5l-3.3-1.3-3.3-1.3-3.2-1.1-3.1-1-3-.8c-3.9-1.1-7.7-1.7-10.9-2.3l-4.5-.5-3.8-.4-7.8-.3a5,5,0,0,1,.4-10h0.3Z" fill="#31323D"></path><path d="M1378.3,1255.9h-15.8c-10,0-24.3,0-41.3.6-8.5.3-17.8,0.7-27.5,1.4s-20,1.6-30.6,2.8-21.5,2.8-32.5,4.8-22.1,4.4-33.1,7.3a334.8,334.8,0,0,0-32.3,10.3c-5.2,1.9-10.4,4.1-15.4,6.3s-9.9,4.6-14.6,7.1a200.5,200.5,0,0,0-47.2,33.9,165.1,165.1,0,0,0-15.5,17.4c-1.1,1.3-2,2.7-3,4l-2.7,3.8-2.4,3.6-2.1,3.4c-1.3,2.1-2.4,4.1-3.4,5.8l-1.3,2.4-1,2-1.9,3.7,1.8-3.7,1-2,1.2-2.4c0.9-1.7,1.9-3.7,3.2-5.9l2-3.4,2.3-3.7c0.8-1.3,1.7-2.6,2.6-3.9s1.8-2.8,2.9-4.1a166.3,166.3,0,0,1,15.1-18,202.9,202.9,0,0,1,46.8-35.6c4.7-2.7,9.6-5.2,14.6-7.6s10.1-4.7,15.4-6.8a339.3,339.3,0,0,1,32.4-11.3c11-3.3,22.2-6,33.3-8.4s22.1-4.2,32.8-5.8,21-2.7,30.9-3.7,19.2-1.6,27.8-2.1c17.2-1,31.6-1.4,41.6-1.7l15.7-.4h0a5,5,0,0,1,.3,10h-0.1Z" fill="#31323D"></path><path d="M1203.3,1240.3l1.5-1.2,4.3-3.4,3.2-2.3,1.8-1.3,2-1.3c2.7-1.9,5.9-3.8,9.5-5.8l5.6-3,6.1-3c4.3-1.9,8.9-3.8,13.7-5.4l3.7-1.2,3.8-1.1,3.8-1.1,3.9-.9,4-.9,4-.7,4.1-.6,4.1-.5,2.1-.2h2.1l4-.2h8.2l8.1,0.3,7.9,0.7c2.6,0.4,5.1.6,7.6,1.1l3.7,0.6,3.5,0.8c4.7,1,9,2.2,13,3.4s7.6,2.6,10.7,3.8l4.4,1.8,3.7,1.7,5.1,2.5,1.8,0.9a5,5,0,1,1-4.6,8.9h-0.3l-1.6-1-4.6-2.6-3.4-1.8-4-2c-2.9-1.4-6.2-2.8-9.9-4.2s-7.7-2.8-12.1-4l-3.3-.9-3.4-.8c-2.3-.6-4.7-1-7.1-1.5l-7.5-1.1-7.7-.7-3.9-.2h-11.9l-4,.2-4,.4-3.9.4-3.9.6-3.9.6-3.8.8-3.7.8-3.7,1c-4.8,1.3-9.4,2.9-13.7,4.5l-6.2,2.6-5.7,2.7c-3.6,1.8-6.9,3.5-9.7,5.2l-2.1,1.2-1.9,1.2-3.3,2.1-4.5,3.1Z" fill="#31323D"></path><path d="M1370.4,1281.7l-7.8-.3-3.8.2h-3.3l-1.2.2-5.2.7-5.7,1.2-1.5.3-1.5.4-3.1.9c-2.2.5-4.3,1.4-6.5,2.2s-4.4,1.9-6.7,2.9l-1.7.8-1.7.9-3.4,1.8-3.4,2-3.4,2.1-6.7,4.6a163.1,163.1,0,0,0-13,10.6l-3.1,2.9-3,3c-2,1.9-3.9,4-5.9,6l-5.5,6.2c-1.7,2.1-3.5,4.1-5.2,6.2l-2.5,3.1-2.4,3.1c-1.6,2-3,4.1-4.4,6.1l-4.1,5.9-3.6,5.6c-2.3,3.6-4.3,7-6.1,10s-3.2,5.7-4.4,7.9c-2.4,4.4-3.6,7-3.6,7s1.1-2.7,3.2-7.2c1.1-2.3,2.4-5,4-8.1s3.4-6.6,5.6-10.3l3.4-5.8,3.8-6.1c1.3-2.1,2.7-4.2,4.1-6.4l2.2-3.3,2.3-3.3c1.5-2.2,3.2-4.4,4.9-6.6l5.3-6.6c1.9-2.1,3.7-4.4,5.6-6.5l2.9-3.2,3-3.1a168.4,168.4,0,0,1,12.8-11.7l6.8-5.2,3.5-2.4c1.2-.8,2.3-1.6,3.5-2.3l3.5-2.1,1.7-1,1.8-.9c2.4-1.2,4.6-2.5,7-3.5s4.6-2.1,6.9-2.8l3.4-1.2,1.6-.6,1.6-.4,6.2-1.6,5.7-1,1.3-.2h1.3l2.5-.2,4.5-.4h7.9a5,5,0,0,1,.1,10h-0.3Z" fill="#31323D"></path></g><g id="item_d"></g><g id="item_c"></g><g id="item_b"></g><g id="item_a"></g></svg>